<svg width="12" height="21" viewBox="0 0 12 21" fill="none" xmlns="http://www.w3.org/2000/svg">
<path d="M9.60942 20.3907C9.86722 20.6485 10.1953 20.7891 10.582 20.7891C11.3555 20.7891 11.9765 20.1797 11.9765 19.4063C11.9765 19.0196 11.8125 18.668 11.5429 18.3985L3.33982 10.3828L11.5429 2.3907C11.8125 2.1211 11.9765 1.7578 11.9765 1.3828C11.9765 0.609401 11.3555 0 10.582 0C10.1953 0 9.86722 0.140699 9.60942 0.398499L0.492189 9.3047C0.164059 9.6094 0.01172 9.9844 0 10.3946C0 10.8047 0.164059 11.1563 0.492189 11.4727L9.60942 20.3907Z" fill="black"/>
</svg>
