<svg width="291" height="227" viewBox="0 0 291 227" fill="none" xmlns="http://www.w3.org/2000/svg">
<defs>
<linearGradient id="paint0_linear" x1="64.2769" y1="124.551" x2="154.248" y2="124.551" gradientUnits="userSpaceOnUse">
<stop stop-color="#808080" stop-opacity="0.25"/>
<stop offset="0.54" stop-color="#808080" stop-opacity="0.12"/>
<stop offset="1" stop-color="#808080" stop-opacity="0.1"/>
</linearGradient>
<clipPath id="clip0">
<rect width="291" height="227" fill="white"/>
</clipPath>
</defs>
<g clip-path="url(#clip0)">
<path opacity="0.1" d="M102.078 222.603C130.112 222.603 152.839 218.311 152.839 213.017C152.839 207.722 130.112 203.43 102.078 203.43C74.0435 203.43 51.3171 207.722 51.3171 213.017C51.3171 218.311 74.0435 222.603 102.078 222.603Z" fill="#75D62A"/>
<path opacity="0.1" d="M169.073 32.0128C150.417 31.3691 132.65 25.3632 115.683 18.7939C98.7167 12.2247 81.9117 4.94859 63.703 1.46858C51.9914 -0.770014 38.5964 -1.08899 29.162 5.16412C20.0792 11.1988 17.1448 21.5872 15.5681 31.2341C14.3805 38.493 13.683 46.1341 16.9344 52.9303C19.1943 57.6489 23.201 61.6145 25.9739 66.1348C35.6217 81.8596 28.8017 101.251 18.3497 116.605C13.4495 123.807 7.75653 130.686 3.97181 138.344C0.187082 146.003 -1.5626 154.808 1.7494 162.641C5.02968 170.4 12.8499 176.217 21.3216 180.312C38.5272 188.631 58.7941 191.01 78.5709 192.361C122.336 195.344 166.332 194.053 210.212 192.757C226.452 192.28 242.761 191.795 258.736 189.292C267.608 187.901 276.766 185.694 283.208 180.366C291.383 173.604 293.409 162.156 287.93 153.678C278.74 139.454 253.34 135.922 246.909 120.66C243.375 112.257 247.004 102.901 252.144 95.1101C263.166 78.3939 281.64 63.7296 282.612 44.6254C283.28 31.5042 274.399 18.3629 260.667 12.1529C246.275 5.64402 226.314 6.46302 215.7 17.2364C204.761 28.3173 185.546 32.5847 169.073 32.0128Z" fill="#75D62A"/>
<path d="M154.248 103.952L145.419 98.018L149.873 91.4086L126.553 89.5551L118.174 96.0151L107.684 90.1528L98.9361 91.2017L98.8323 88.9028C98.724 86.5061 98.4825 84.1173 98.1088 81.7473C98.1463 81.0289 98.1722 80.2042 98.1694 79.3076C98.1694 75.5287 97.6563 70.5199 95.4022 67.1807L95.921 62.5311L91.7126 57.574C92.3884 56.2319 93.159 54.9393 94.0186 53.706C94.1627 53.4991 94.3068 53.298 94.4625 53.1025C99.9248 52.7089 104.234 48.2317 104.234 42.7573C104.234 42.5044 104.234 42.2516 104.205 42.0015C104.205 41.901 104.185 41.7975 104.174 41.6969C104.707 41.9843 105.246 42.2717 105.785 42.559C105.886 42.7027 106.001 42.8464 106.128 43.016L106.154 43.0476L106.315 43.2459L106.367 43.3062C106.425 43.3752 106.485 43.4413 106.546 43.5102L106.586 43.5562C106.739 43.7258 106.9 43.8982 107.073 44.0677C107.094 44.0844 107.113 44.1027 107.131 44.1223L107.347 44.3235L107.408 44.3781C107.592 44.5419 107.788 44.6999 107.984 44.8494L108.048 44.8953L108.296 45.0649L108.376 45.1166C108.471 45.1741 108.569 45.2344 108.665 45.289L108.699 45.3091C108.812 45.3695 108.927 45.427 109.042 45.4816L109.1 45.5046C109.198 45.5467 109.294 45.5869 109.388 45.6253L109.477 45.6569C109.578 45.6913 109.676 45.723 109.78 45.7517L109.843 45.7689C109.97 45.8005 110.097 45.8264 110.227 45.8465H110.241C110.363 45.8662 110.487 45.8787 110.61 45.8839H110.694C110.804 45.8896 110.915 45.8896 111.025 45.8839H111.097C111.236 45.8759 111.373 45.8596 111.51 45.835C112.155 45.7505 112.774 45.529 113.326 45.1856C113.466 45.0919 113.591 44.9765 113.695 44.8436C114.271 44.0907 113.637 43.266 113.637 43.266C113.412 42.7315 111.953 42.355 111.953 42.355C111.953 42.355 107.341 40.4354 107.341 38.9066C107.341 37.3778 106.188 29.4465 94.2866 27.6332C94.2866 27.6332 86.5442 27.1993 84.3679 31.3316L84.3218 31.8144C83.6819 32.2138 83.1515 33.0156 82.5203 33.2512C82.2475 33.3096 81.9845 33.4064 81.7391 33.5386V33.484C81.6662 33.5475 81.6065 33.6246 81.5633 33.711C81.4277 33.98 81.3464 34.2729 81.324 34.5731C81.2591 34.9398 81.1313 35.2927 80.9464 35.6163C80.8948 35.7082 80.8371 35.7965 80.7735 35.8806V35.8806L80.7245 35.9582C81.0591 35.9842 81.3951 35.93 81.7045 35.8002C81.6558 36.1936 81.559 36.5796 81.4163 36.9496C81.5995 36.9555 81.7806 36.9088 81.938 36.8151C82.0954 36.7214 82.2224 36.5845 82.3041 36.4209V36.3979L82.3415 36.3462C82.414 36.2131 82.4739 36.0736 82.5203 35.9295L82.4885 35.964C82.5462 35.7772 82.5981 35.5875 82.6615 35.4036C82.6906 35.3 82.7384 35.2026 82.8027 35.1162C82.8797 35.0389 82.9737 34.9807 83.0774 34.9462C83.181 34.9118 83.2913 34.9021 83.3994 34.9179L83.2812 37.4094H83.3331C83.2637 37.5907 83.1788 37.7656 83.0795 37.9324C82.6701 38.5934 81.9265 39.0445 81.6526 39.7687C81.5346 40.118 81.4894 40.4876 81.52 40.855C81.52 41.0705 81.546 41.2889 81.5633 41.5044V41.4872C81.6036 42.0619 81.6152 42.6079 81.3038 43.0706C81.0905 43.3867 80.7475 43.6252 80.6293 43.9844C80.5966 44.0845 80.582 44.1896 80.5861 44.2947C80.6092 44.6097 80.6752 44.92 80.7821 45.2172C80.7834 45.2115 80.7834 45.2056 80.7821 45.1999C80.854 45.4186 80.8708 45.6515 80.8311 45.8781C80.7014 46.4529 80.001 46.9328 80.0355 47.4816C80.0336 47.5538 80.0443 47.6258 80.0672 47.6943C80.202 47.9624 80.4354 48.1683 80.7187 48.269C81.1631 48.521 81.6735 48.6332 82.183 48.5909C82.374 48.5565 82.5586 48.4935 82.7307 48.4041C82.5289 48.8668 82.3214 49.3237 82.1109 49.7576C82.0792 49.8266 82.0446 49.8955 82.01 49.9645C82.01 49.9645 80.2287 48.7777 79.2169 51.1973C78.9215 51.7001 78.7103 52.2475 78.5914 52.8181C78.5407 53.0463 78.4693 53.2694 78.3781 53.4847C77.9289 54.2428 77.2567 54.8448 76.4526 55.2089C74.3887 56.1515 66.0525 66.5168 65.9055 69.2009C65.8334 70.2486 65.6557 71.2864 65.3751 72.2987C64.7189 74.6825 64.5503 77.1736 64.8793 79.6237C64.9823 80.4155 65.153 81.1971 65.3895 81.96C66.2745 84.6411 66.8654 89.6442 66.8654 89.6442L67.8224 98.3284C67.7868 99.527 67.8389 100.727 67.978 101.918C67.0009 103.03 63.0778 107.665 64.5767 108.927C65.7297 109.921 67.7474 109.757 68.8803 109.553C67.9261 111.907 66.4244 115.999 66.2255 118.809C65.9372 122.967 66.7184 128.476 67.955 130.591C69.1916 132.706 73.3135 138.132 73.3135 138.132C73.3135 138.132 73.1204 145.574 74.5934 148.279C76.0663 150.983 76.6601 156.592 76.6601 156.592C76.6601 156.592 78.0351 161.328 77.3462 163.069C76.6572 164.811 78.6231 166.259 76.5592 167.417C74.4954 168.575 71.855 194.677 71.855 194.677C71.855 194.677 70.7914 211.784 71.855 212.655C71.9119 212.696 71.9727 212.731 72.0366 212.761V218.508C72.0366 218.508 71.2987 219.715 74.2994 219.959C76.3546 220.123 82.1801 220.494 85.6362 220.709L88.3141 220.876C88.3141 220.876 94.6556 222.135 97.4574 220.876C100.259 219.617 105.226 219.646 104.488 216.321C104.39 215.869 104.259 215.424 104.096 214.991C103.286 212.928 101.911 212.692 99.3771 212.117C99.2301 212.086 99.0889 212.057 98.9592 212.034C96.29 211.571 95.4137 212.81 93.9177 211.198C92.6177 209.804 88.4784 208.243 87.0688 207.749C87.1034 207.646 87.1467 207.545 87.1813 207.439C86.7821 207.371 86.4109 207.191 86.1119 206.919L89.9312 207.16L92.2055 207.301C92.2055 207.301 97.5957 208.373 99.9882 207.301C102.381 206.229 106.589 206.258 105.961 203.433C105.878 203.048 105.767 202.67 105.629 202.301C104.94 200.548 103.77 200.355 101.617 199.87C101.493 199.844 101.378 199.818 101.262 199.798C98.9938 199.404 98.2501 200.456 96.9789 199.088C95.8893 197.921 92.4505 196.614 91.2139 196.168C91.2139 195.53 90.3491 194.622 89.8043 193.711C89.1644 192.648 90.3462 188.927 90.3462 188.927L91.0208 173.486C91.2776 173.372 91.5493 173.295 91.8278 173.257C91.8278 173.257 94.8775 170.354 94.1886 167.262C94.0482 166.327 93.975 165.383 93.9696 164.437C94.9727 163.509 96.3534 162.138 96.7454 161.293C97.3853 159.917 96.7454 153.247 96.7454 153.247V127.743L101.847 128.258L106.477 128.732L107.886 128.876L112.516 129.341L123.155 130.413L132.742 128.603L136.89 127.821L145.419 126.212V105.406L154.248 103.952ZM84.0278 35.0099L83.434 34.9467C83.63 34.9553 83.8376 34.9927 84.0278 35.0099Z" fill="url(#paint0_linear)"/>
<path d="M133.555 117.461C130.672 121.574 120.31 119.395 120.31 119.395L112.279 111.904L111.198 110.889L113.011 107.05C113.011 107.05 113.588 107.208 114.577 107.49C119.768 108.993 135.988 114.004 133.555 117.461Z" fill="#EFB7B9"/>
<path opacity="0.1" d="M114.571 107.49C114.216 108.72 113.245 110.562 112.279 111.904L111.198 110.889L113.011 107.05C113.011 107.05 113.594 107.208 114.571 107.49Z" fill="black"/>
<path d="M87.0284 64.195C87.0284 64.195 79.6262 67.4681 79.9894 75.5057C80.2507 80.684 80.8166 85.8425 81.6843 90.9546C81.6843 90.9546 80.171 103.05 86.4721 106.168C92.7733 109.286 98.6046 111.849 98.6046 111.849C98.6046 111.849 108.463 112.907 109.688 113.343C110.913 113.78 114.741 107.102 114.035 106.061C113.328 105.021 104.28 102.84 103.127 101.104C101.974 99.3687 99.3079 98.2968 99.3079 98.2968C99.3079 98.2968 96.5551 96.6358 96.3677 95.1358C96.1804 93.6357 96.9068 92.5179 97.0913 91.8598C97.2757 91.2017 97.7427 84.848 97.7427 84.848C97.7427 84.848 100.85 62.2322 87.0284 64.195Z" fill="#DCE6F2"/>
<path opacity="0.1" d="M91.9143 90.624C91.9143 90.624 81.7593 92.3195 82.7422 95.8627C82.7422 95.8627 86.4289 92.0379 91.9143 90.624Z" fill="black"/>
<path opacity="0.1" d="M91.9921 92.0581C91.9921 92.0581 86.4087 96.6014 87.5012 96.8341C88.5937 97.0669 91.9921 92.0581 91.9921 92.0581Z" fill="black"/>
<path opacity="0.1" d="M94.6757 93.6414C94.6757 93.6414 93.1797 96.6961 94.0992 96.4892C95.0187 96.2822 94.6757 93.6414 94.6757 93.6414Z" fill="black"/>
<path opacity="0.1" d="M114.946 107.814L114.329 107.639C114.504 107.064 114.553 106.599 114.409 106.383C113.703 105.343 104.661 103.165 103.511 101.426C102.361 99.6878 99.6913 98.6187 99.6913 98.6187C99.6913 98.6187 96.9385 96.9578 96.7512 95.4577C96.5638 93.9576 97.2902 92.8398 97.4747 92.1817C97.6592 91.5236 98.1261 85.1671 98.1261 85.1671C98.1261 85.1671 101.225 62.5542 87.4032 64.5169C87.4032 64.5169 80.0009 67.7929 80.3613 75.8305C80.6227 81.0089 81.1896 86.1674 82.059 91.2794C82.059 91.2794 80.5457 103.375 86.8469 106.493C93.148 109.611 98.9793 112.174 98.9793 112.174C98.9793 112.174 108.835 113.228 110.063 113.668C110.527 113.835 111.365 112.976 112.187 111.795L112.654 112.228L120.685 119.717C120.685 119.717 131.047 121.898 133.93 117.786C136.365 114.326 120.148 109.315 114.946 107.814Z" fill="black"/>
<path d="M82.7681 34.0271C82.4859 34.0821 82.2156 34.1862 81.9697 34.3346C81.6814 34.5731 81.6814 34.9812 81.6093 35.3375C81.5247 35.8332 81.3275 36.3031 81.0328 36.7111C81.3608 36.7351 81.6899 36.681 81.9927 36.5531C81.9434 36.9464 81.8466 37.3324 81.7045 37.7026C81.8841 37.7071 82.0612 37.6599 82.2146 37.5666C82.3679 37.4734 82.4911 37.338 82.5692 37.1767C82.7217 36.8529 82.8424 36.5151 82.9295 36.168C82.9566 36.0642 83.0036 35.9666 83.0679 35.8806C83.3331 35.5674 83.826 35.7082 84.2353 35.7485C84.5759 35.7771 84.9181 35.7144 85.2262 35.5668C85.5344 35.4193 85.7973 35.1923 85.9879 34.9093C86.4231 34.2513 86.4491 32.5673 85.4114 32.3891C84.3275 32.211 83.653 33.6995 82.7681 34.0271Z" fill="#965D7B"/>
<g opacity="0.1">
<path opacity="0.1" d="M81.9408 34.6881C81.9667 34.5473 81.984 34.4007 82.0157 34.2599C81.7419 34.4984 81.7275 34.9036 81.6554 35.2628C81.6191 35.4701 81.5621 35.6732 81.4854 35.8691C81.7123 35.5085 81.867 35.1074 81.9408 34.6881V34.6881Z" fill="black"/>
<path opacity="0.1" d="M82.033 37.0617C82.1766 36.6919 82.2734 36.3058 82.3213 35.9122C82.0327 36.0333 81.7202 36.0874 81.4075 36.0703C81.3165 36.2724 81.2055 36.4649 81.076 36.645C81.4029 36.6702 81.7311 36.617 82.033 36.4898C81.9852 36.8834 81.8883 37.2696 81.7448 37.6393C81.9243 37.6435 82.1013 37.5962 82.2546 37.5029C82.4079 37.4097 82.5311 37.2745 82.6095 37.1134C82.6814 36.9828 82.7393 36.8451 82.7825 36.7025C82.6979 36.8203 82.5849 36.915 82.4539 36.9778C82.3229 37.0406 82.1782 37.0694 82.033 37.0617V37.0617Z" fill="black"/>
<path opacity="0.1" d="M84.5639 35.1076C84.1546 35.0674 83.6588 34.9266 83.3936 35.2398C83.3304 35.3265 83.2836 35.4238 83.2552 35.5272C83.2293 35.6019 83.2062 35.6795 83.186 35.7571C83.4599 35.5415 83.9038 35.6565 84.2756 35.6938C84.6162 35.7216 84.958 35.6585 85.2659 35.511C85.5739 35.3635 85.837 35.137 86.0282 34.8547C86.1156 34.7152 86.1807 34.563 86.2213 34.4036C86.0239 34.6471 85.7696 34.8387 85.4806 34.9615C85.1916 35.0842 84.8768 35.1344 84.5639 35.1076Z" fill="black"/>
</g>
<path d="M91.4445 57.7609L95.8403 63.0312L95.2667 68.3503L89.9542 60.0598L91.4445 57.7609Z" fill="#DCE6F2"/>
<path opacity="0.1" d="M95.8374 63.0312L95.2984 68.0342L95.2638 68.3503L90.4702 60.8673L89.9542 60.0598L90.1041 59.827L91.4416 57.7609L91.7385 58.1172L95.8374 63.0312Z" fill="black"/>
<path d="M98.1203 50.6255C96.6329 51.0508 95.2118 52.5107 93.9752 54.2837C93.1394 55.5071 92.3919 56.7881 91.7384 58.1172C91.332 58.9276 90.9746 59.7063 90.6777 60.3845L90.4701 60.8673C89.9686 62.0484 89.689 62.8386 89.689 62.8386C89.689 62.8386 78.3031 54.3038 80.1047 53.7291C80.71 53.5366 81.5055 52.2434 82.2925 50.614L82.3905 50.4071C82.8891 49.3611 83.3792 48.1944 83.8144 47.0967C84.7051 44.8408 85.3652 42.881 85.3652 42.881C85.3652 42.881 102.66 49.3324 98.1203 50.6255Z" fill="#EFB7B9"/>
<path d="M104.932 42.401C104.932 42.401 107.56 47.1426 111.092 46.496C114.623 45.8494 113.17 43.9499 113.17 43.9499L104.932 42.401Z" fill="#444053"/>
<path d="M99.8384 206.531C97.5093 207.591 92.243 206.531 92.243 206.531L90.0234 206.393C87.1409 206.209 82.3156 205.899 80.6092 205.761C78.1187 205.557 78.7298 204.539 78.7298 204.539V198.393L90.8132 195.341C90.8132 195.341 95.5896 196.97 96.8982 198.393C98.1406 199.749 98.867 198.706 101.084 199.097C101.193 199.117 101.308 199.14 101.429 199.169C103.534 199.648 104.675 199.838 105.35 201.577C105.485 201.942 105.594 202.317 105.675 202.697C106.298 205.496 102.165 205.476 99.8384 206.531Z" fill="#A36468"/>
<path opacity="0.1" d="M105.35 201.577C104.917 201.846 104.462 202.079 103.989 202.272C102.404 202.993 100.896 203.873 99.2935 204.554C97.6909 205.235 95.9643 205.721 94.229 205.591C93.321 205.525 92.3928 205.304 91.5252 205.562C90.9886 205.769 90.4833 206.048 90.0234 206.393C87.1409 206.209 82.3156 205.899 80.6092 205.761C78.1187 205.557 78.7298 204.539 78.7298 204.539V203.821C78.8192 203.821 78.92 203.795 79.0353 203.787C79.6319 203.777 80.2259 203.865 80.7937 204.048C82.0447 204.387 83.2899 204.72 84.5409 205.054C84.6438 204.667 84.8247 204.305 85.0724 203.989C85.3202 203.674 85.6297 203.413 85.9822 203.22C86.6962 202.843 87.4976 202.659 88.3055 202.689C90.2454 202.715 92.0815 203.631 94.0186 203.723C94.5601 203.773 95.1053 203.682 95.6011 203.459C95.8663 203.327 96.0997 203.134 96.3592 202.988C96.7743 202.787 97.213 202.64 97.6649 202.548C98.9352 202.233 100.182 201.831 101.398 201.347C101.744 201.212 102.147 200.967 102.101 200.6C102.041 200.111 101.271 200.054 101.069 199.605C101.034 199.524 101.017 199.437 101.021 199.348C101.025 199.26 101.049 199.174 101.092 199.097C101.202 199.117 101.317 199.14 101.438 199.169C103.534 199.648 104.675 199.838 105.35 201.577Z" fill="black"/>
<path d="M97.3766 219.98C94.6382 221.227 88.4409 219.98 88.4409 219.98L85.8322 219.827C82.4539 219.612 76.7638 219.253 74.7547 219.083C71.8232 218.842 72.5439 217.646 72.5439 217.646V210.402L86.7633 206.81C86.7633 206.81 92.3841 208.726 93.9234 210.402C95.3848 211.997 96.2294 210.769 98.8496 211.229C98.9793 211.252 99.1148 211.281 99.256 211.313C101.732 211.887 103.075 212.103 103.868 214.149C104.029 214.578 104.157 215.019 104.251 215.468C104.966 218.761 100.115 218.735 97.3766 219.98Z" fill="#A36468"/>
<path opacity="0.1" d="M103.862 214.149C103.353 214.466 102.818 214.74 102.262 214.968C100.397 215.816 98.6219 216.85 96.7367 217.652C94.8516 218.454 92.8194 219.023 90.7757 218.873C89.7092 218.796 88.6167 218.528 87.6049 218.839C86.971 219.085 86.3744 219.418 85.8322 219.827C82.4539 219.612 76.7638 219.253 74.7547 219.083C71.8232 218.842 72.5439 217.646 72.5439 217.646V216.801C72.6632 216.782 72.7835 216.768 72.9042 216.761C73.6064 216.748 74.3058 216.852 74.9738 217.069L79.3812 218.253C79.5039 217.796 79.7188 217.369 80.0127 216.998C80.3066 216.627 80.6734 216.319 81.0905 216.094C81.9306 215.648 82.8746 215.432 83.826 215.468C86.1089 215.5 88.2679 216.577 90.548 216.686C91.183 216.744 91.8222 216.638 92.4043 216.379C92.7185 216.221 92.9808 215.994 93.2979 215.824C93.7854 215.586 94.3018 215.412 94.8343 215.307C96.3208 214.933 97.7806 214.461 99.2041 213.893C99.6106 213.732 100.086 213.445 100.031 213.014C99.9594 212.439 99.0542 212.37 98.815 211.841C98.7747 211.746 98.7563 211.643 98.7613 211.539C98.7663 211.436 98.7945 211.335 98.8438 211.244C98.9735 211.267 99.109 211.295 99.2503 211.327C101.726 211.879 103.07 212.103 103.862 214.149Z" fill="black"/>
<path d="M91.1792 170.268L90.4096 188.323C90.4096 188.323 89.2566 192.01 89.8821 193.065C90.5076 194.119 91.5626 195.171 91.1792 195.795C90.7959 196.418 86.1839 203.16 84.6936 200.574C83.2033 197.987 81.7333 186.78 81.7333 186.78L83.1082 172.937L91.1792 170.268Z" fill="#444053"/>
<path d="M94.5171 125.283L96.6559 128.134V152.928C96.6559 152.928 97.2814 159.538 96.6559 160.903C96.0304 162.268 92.8597 164.998 92.8597 164.998L90.1934 151.348L90.7699 136.907L94.5171 125.283Z" fill="#444053"/>
<path opacity="0.1" d="M91.1792 170.268L90.4096 188.323C90.4096 188.323 89.2566 192.01 89.8821 193.065C90.5076 194.119 91.5626 195.171 91.1792 195.795C90.7959 196.418 86.1839 203.16 84.6936 200.574C83.2033 197.987 81.7333 186.78 81.7333 186.78L83.1082 172.937L91.1792 170.268Z" fill="black"/>
<path opacity="0.1" d="M94.5171 125.283L96.6559 128.134V152.928C96.6559 152.928 97.2814 159.538 96.6559 160.903C96.0304 162.268 92.8597 164.998 92.8597 164.998L90.1934 151.348L90.7699 136.907L94.5171 125.283Z" fill="black"/>
<path d="M96.6561 114.708V128.12L94.2549 138.56C94.2549 138.56 93.4853 163.753 94.1569 166.817C94.8286 169.88 91.8509 172.757 91.8509 172.757C91.8509 172.757 90.1214 172.949 90.1214 174.288C90.1214 175.627 87.2389 179.461 87.2389 179.461L87.3341 186.932C87.3341 186.932 88.5851 200.919 86.6624 203.6C84.7398 206.281 87.3341 206.666 87.3341 206.666C84.9329 214.52 73.4029 212.701 72.3623 211.838C71.3218 210.976 72.3623 194.022 72.3623 194.022C72.3623 194.022 74.9393 168.159 76.9571 167.009C78.9748 165.86 77.0551 164.423 77.7267 162.699C78.3983 160.974 77.0551 156.282 77.0551 156.282C77.0551 156.282 76.4786 150.724 75.0373 148.043C73.5961 145.362 73.7863 137.985 73.7863 137.985C73.7863 137.985 69.7508 132.62 68.5517 130.514C67.3526 128.407 66.5801 122.947 66.8683 118.826C67.0643 116.042 68.5315 111.987 69.4626 109.654C69.9093 108.536 70.2322 107.812 70.2322 107.812L70.506 107.883L86.2502 111.993L96.6561 114.708Z" fill="#444053"/>
<path opacity="0.1" d="M98.1204 50.6255C96.633 51.0508 95.2119 52.5106 93.9753 54.2837H93.6525C91.8399 54.285 90.0592 53.8092 88.4902 52.9045C86.9211 51.9998 85.6195 50.6982 84.7168 49.1312C84.3395 48.4819 84.0359 47.7928 83.8116 47.0765C84.7023 44.8207 85.3624 42.8608 85.3624 42.8608C85.3624 42.8608 102.66 49.3324 98.1204 50.6255Z" fill="black"/>
<path d="M103.957 43.4414C103.96 45.0138 103.6 46.5657 102.907 47.9777C102.213 49.3898 101.203 50.6241 99.9552 51.5858C98.7074 52.5475 97.2548 53.2108 95.7094 53.5247C94.1639 53.8385 92.5668 53.7945 91.0411 53.3961C89.5154 52.9976 88.1018 52.2553 86.9092 51.2264C85.7165 50.1975 84.7767 48.9094 84.1621 47.4613C83.5475 46.0133 83.2745 44.4439 83.3642 42.8741C83.4538 41.3042 83.9038 39.7759 84.6792 38.4067C84.9916 37.8504 85.3565 37.325 85.7688 36.8377C86.4486 36.0304 87.2475 35.3308 88.1382 34.7629C89.6428 33.8098 91.3696 33.262 93.15 33.1731C94.9303 33.0843 96.7034 33.4574 98.2959 34.2559C99.8884 35.0545 101.246 36.2513 102.236 37.7293C103.225 39.2073 103.814 40.916 103.943 42.6885C103.949 42.9414 103.957 43.1914 103.957 43.4414Z" fill="#EFB7B9"/>
<path opacity="0.1" d="M95.2983 68.0342L95.2637 68.3503L90.4701 60.8788C89.9686 62.0598 89.689 62.8501 89.689 62.8501C89.689 62.8501 78.3031 54.3038 80.1047 53.7291C80.71 53.5365 81.5055 52.2434 82.2925 50.614L82.3905 50.4071C83.2264 52.89 88.0834 57.8528 90.104 59.8414C90.3375 60.0713 90.5307 60.2609 90.6805 60.3989L90.989 60.6862L91.1504 60.8472C91.8854 61.6029 94.987 64.9364 95.2983 68.0342Z" fill="black"/>
<path d="M98.8813 93.3858L98.3567 110.217L98.2645 113.214C98.2645 113.214 92.0498 112.639 86.2502 112.007C81.5806 111.499 77.179 110.95 76.5016 110.628C75.6369 110.223 73.7834 109.909 72.322 109.711C71.192 109.559 70.3042 109.478 70.3042 109.478C70.3042 109.478 69.9727 109.576 69.4625 109.668C68.3499 109.869 66.3956 110.033 65.257 109.047C63.8013 107.786 67.6264 103.202 68.5805 102.102L68.7909 101.863L68.4306 98.544L67.4938 89.9373C67.4938 89.9373 66.9173 84.9803 66.0525 82.3221C65.8214 81.5664 65.6545 80.7925 65.5539 80.0088C65.2326 77.581 65.3972 75.1139 66.0381 72.7499C66.312 71.7454 66.4858 70.7165 66.557 69.6779C66.7011 67.0198 74.8442 56.7464 76.8619 55.8125C77.7696 55.3905 78.5 54.6644 78.9258 53.7607C79.0664 53.4765 79.1719 53.1764 79.24 52.867C80.1047 49.1312 82.2925 50.614 82.2925 50.614C82.82 53.5365 90.9862 61.2725 90.9862 61.2725L91.1476 61.4334C91.9576 62.261 95.5665 66.1462 95.3099 69.4624C95.2587 70.6967 95.4435 71.9294 95.8547 73.0947C97.5158 78.3089 98.4706 83.721 98.694 89.1873L98.8813 93.3858Z" fill="#DCE6F2"/>
<path opacity="0.1" d="M87.3109 73.3993C87.3109 73.3993 85.2931 78.2845 83.7798 79.0748C82.2665 79.865 88.0315 80.7415 87.3109 73.3993Z" fill="black"/>
<path opacity="0.1" d="M88.8243 82.5232C88.8243 82.5232 84.2123 83.0979 84.2123 83.96C84.2123 84.8221 88.8243 82.5232 88.8243 82.5232Z" fill="black"/>
<path opacity="0.1" d="M93.6525 88.127C93.6525 88.127 86.9507 102.352 85.0771 102.783C83.2034 103.214 93.6525 88.127 93.6525 88.127Z" fill="black"/>
<path opacity="0.1" d="M90.8593 61.9937L85.3163 64.3961L78.626 54.321C78.7666 54.0368 78.8721 53.7367 78.9402 53.4273C79.8049 49.6915 81.9927 51.1743 81.9927 51.1743C82.5202 54.0968 90.6864 61.8328 90.6864 61.8328L90.8593 61.9937Z" fill="black"/>
<path d="M91.1475 61.4191L85.6045 63.8215L78.9142 53.7464C79.0548 53.4622 79.1603 53.1621 79.2284 52.8527C80.0931 49.1169 82.2809 50.5997 82.2809 50.5997C82.8084 53.5222 90.9746 61.2582 90.9746 61.2582L91.1475 61.4191Z" fill="#DCE6F2"/>
<path opacity="0.1" d="M98.2645 113.214C98.2645 113.214 92.0498 112.639 86.2502 112.007L96.656 114.723V117.884C96.2006 118.295 95.8057 118.507 95.5491 118.398C94.35 117.895 84.5639 116.315 84.5639 116.315C84.5639 116.315 78.8796 113.441 72.7457 109.993C72.5968 109.91 72.4525 109.82 72.3133 109.722C71.5981 109.238 70.9818 108.623 70.4973 107.909C69.3645 106.274 68.8111 104.173 68.5718 102.113C68.4373 100.932 68.3872 99.7433 68.4219 98.5554C68.4516 97.2084 68.5749 95.8651 68.7909 94.5351C68.1977 89.3839 67.9089 84.2023 67.9261 79.0173C67.9982 70.971 75.5648 68.0974 75.5648 68.0974C89.4728 66.876 85.1606 89.2907 85.1606 89.2907C85.1606 89.2907 84.3564 95.6128 84.1373 96.2593C83.9183 96.9059 83.1313 97.9835 83.238 99.4922C83.3446 101.001 86.0023 102.806 86.0023 102.806C86.0023 102.806 88.5965 104.018 89.666 105.814C90.4442 107.139 95.5001 108.935 98.3567 110.217L98.2645 113.214Z" fill="black"/>
<path opacity="0.1" d="M102.923 37.0618C102.928 37.5352 102.83 38.0039 102.634 38.4354C102.487 38.7876 102.315 39.1293 102.121 39.4585C101.818 40.0639 101.387 40.5971 100.859 41.0217C100.193 41.4959 99.3512 41.6281 98.5527 41.8206C97.7543 42.0132 96.9241 42.3206 96.4687 42.9988C96.2219 43.4348 96.0568 43.912 95.9815 44.4069C95.9052 44.9015 95.7071 45.3695 95.405 45.7691C95.2478 45.9642 95.0299 46.1016 94.7857 46.1599C94.5415 46.2181 94.2849 46.1939 94.056 46.0909C93.815 45.9289 93.6322 45.6943 93.5343 45.4213C93.2057 44.6828 93.1221 43.8638 92.9895 43.0678C92.8569 42.2718 92.6695 41.4528 92.1795 40.812C91.6895 40.1711 90.8219 39.7487 90.0522 39.9987C89.7946 40.0976 89.5597 40.2473 89.3616 40.4389C89.1635 40.6305 89.0062 40.86 88.8992 41.1137C88.6862 41.6216 88.5399 42.1547 88.464 42.7C88.1066 44.6502 87.6847 46.589 87.1986 48.5163C87.1837 48.5953 87.1512 48.6699 87.1034 48.7347C87.0268 48.8108 86.9234 48.8541 86.8152 48.8554C86.1695 48.9416 85.5498 48.4904 84.8983 48.5393C84.8312 48.5437 84.7646 48.5543 84.6994 48.5709C83.6462 46.746 83.1811 44.6424 83.3672 42.5452C83.5534 40.448 84.3817 38.4585 85.74 36.8463L85.7919 36.8319C86.2252 36.6786 86.619 36.4312 86.9449 36.1078C87.361 35.6926 87.7463 35.248 88.0979 34.7773L88.3285 34.4899C88.9911 33.6941 89.7458 32.9794 90.5769 32.3605C90.8037 32.1752 91.0639 32.0348 91.3436 31.9467C91.5829 31.9002 91.8282 31.8924 92.07 31.9237C93.0655 32.0428 94.0691 32.0803 95.0707 32.0358C95.7686 31.9264 96.472 31.8554 97.1778 31.8231C99.0024 31.8748 100.559 33.1594 101.712 34.5675C102.332 35.2888 102.885 36.1193 102.923 37.0618Z" fill="black"/>
<path d="M83.3331 38.6796C82.9324 39.3348 82.2089 39.7803 81.938 40.4987C81.5402 41.5418 82.2118 42.8407 81.5949 43.7718C81.3903 44.085 81.053 44.3178 80.9377 44.677C80.7417 45.2833 81.2779 45.9299 81.1395 46.5535C81.0011 47.1771 80.1768 47.703 80.3958 48.3122C80.5253 48.5779 80.7524 48.7837 81.03 48.8869C81.4667 49.1367 81.9695 49.248 82.4712 49.2059C83.2581 49.0766 83.8433 48.3064 84.6417 48.249C85.2903 48.203 85.9101 48.6513 86.5557 48.5679C86.6639 48.5642 86.7668 48.5201 86.844 48.4444C86.893 48.3803 86.9256 48.3054 86.9391 48.226C87.4234 46.3006 87.8461 44.3618 88.2074 42.4097C88.281 41.8643 88.4264 41.3309 88.6398 40.8234C88.7476 40.5702 88.9052 40.3412 89.1032 40.1497C89.3012 39.9582 89.5357 39.8081 89.7928 39.7084C90.5624 39.4613 91.4272 39.8808 91.9201 40.5217C92.413 41.1625 92.6003 41.9815 92.7329 42.7775C92.8655 43.5735 92.9491 44.3925 93.2748 45.131C93.3738 45.4049 93.5575 45.6404 93.7995 45.8035C94.2318 46.0535 94.8141 45.8552 95.1456 45.4816C95.4493 45.0819 95.6475 44.6125 95.7221 44.1166C95.7973 43.6226 95.9624 43.1463 96.2092 42.7114C96.6647 42.0332 97.4977 41.7257 98.2933 41.5332C99.0889 41.3407 99.9277 41.2056 100.599 40.7314C101.127 40.3072 101.558 39.7751 101.862 39.171C102.288 38.4296 102.686 37.625 102.652 36.7715C102.614 35.8405 102.061 35.01 101.47 34.2858C100.317 32.8777 98.7574 31.5932 96.9327 31.5443C96.2268 31.5737 95.5232 31.6447 94.8256 31.757C93.8239 31.8019 92.8202 31.7634 91.8249 31.642C91.5829 31.6132 91.3379 31.6219 91.0986 31.6679C90.8186 31.7531 90.5588 31.8939 90.3347 32.0817C89.5028 32.6995 88.7471 33.4133 88.0835 34.2082C87.6555 34.7739 87.1914 35.3114 86.6941 35.8175C86.3681 36.1414 85.9744 36.3897 85.5411 36.5445C85.2528 36.625 84.9646 36.5675 84.6908 36.6566C83.8404 36.9238 83.728 38.0302 83.3331 38.6796Z" fill="#965D7B"/>
<path opacity="0.1" d="M111.092 46.4931C108.786 46.9155 106.874 45.0563 105.817 43.6999C105.492 43.288 105.196 42.854 104.932 42.401L112.847 43.8896L113.167 43.9499C113.167 43.9499 114.623 45.8494 111.092 46.4931Z" fill="black"/>
<g opacity="0.1">
<path opacity="0.1" d="M81.1396 45.7317C81.1718 45.3558 81.1145 44.9777 80.9724 44.6282C80.9724 44.6569 80.9464 44.6856 80.9378 44.7144C80.8138 45.0995 80.981 45.4989 81.0877 45.8983C81.1106 45.8447 81.128 45.7888 81.1396 45.7317V45.7317Z" fill="black"/>
<path opacity="0.1" d="M81.8255 41.0275C81.7959 41.4248 81.8036 41.8241 81.8486 42.22C81.8781 41.8227 81.8704 41.4234 81.8255 41.0275Z" fill="black"/>
<path opacity="0.1" d="M101.845 38.3406C101.541 38.946 101.111 39.4792 100.582 39.9039C99.9161 40.378 99.0773 40.5102 98.276 40.7027C97.4746 40.8953 96.6474 41.2028 96.1919 41.8809C95.9455 42.3171 95.7805 42.7942 95.7048 43.289C95.6297 43.7848 95.4315 44.254 95.1283 44.654C94.7968 45.0276 94.2145 45.2288 93.7821 44.9759C93.5402 44.8128 93.3565 44.5774 93.2575 44.3034C92.9318 43.5649 92.8453 42.7488 92.7156 41.9499C92.5859 41.151 92.3928 40.3349 91.9028 39.6941C91.4127 39.0533 90.5451 38.6308 89.7755 38.8808C89.5181 38.9801 89.2834 39.13 89.0854 39.3215C88.8873 39.5131 88.7299 39.7424 88.6225 39.9958C88.4091 40.5033 88.2637 41.0367 88.1901 41.5821C87.8307 43.5343 87.408 45.473 86.9218 47.3984C86.9083 47.4778 86.8757 47.5527 86.8267 47.6168C86.7495 47.6925 86.6466 47.7366 86.5384 47.7404C85.8927 47.8237 85.273 47.3754 84.6244 47.4214C83.826 47.4789 83.2408 48.249 82.4539 48.3754C81.952 48.4203 81.4484 48.3089 81.0127 48.0565C80.8123 47.9705 80.6325 47.8432 80.4852 47.6829C80.4177 47.7792 80.3731 47.8895 80.3546 48.0054C80.3361 48.1214 80.3443 48.2401 80.3785 48.3525C80.5055 48.62 80.7335 48.8266 81.0127 48.9272C81.4484 49.1796 81.952 49.291 82.4539 49.2462C83.2408 49.1197 83.826 48.3496 84.6244 48.2921C85.273 48.2461 85.8927 48.6944 86.5384 48.6111C86.6466 48.6073 86.7495 48.5632 86.8267 48.4875C86.8757 48.4235 86.9083 48.3485 86.9218 48.2691C87.4061 46.3533 87.8288 44.4146 88.1901 42.4528C88.2637 41.9074 88.4091 41.3741 88.6225 40.8665C88.7299 40.6131 88.8873 40.3838 89.0854 40.1923C89.2834 40.0007 89.5181 39.8508 89.7755 39.7516C90.5451 39.5015 91.4099 39.924 91.9028 40.5648C92.3957 41.2056 92.583 42.0246 92.7156 42.8206C92.8482 43.6166 92.9318 44.4356 93.2575 45.1742C93.3565 45.4481 93.5402 45.6836 93.7821 45.8466C94.2145 46.0966 94.7968 45.8983 95.1283 45.5248C95.4315 45.1248 95.6297 44.6555 95.7048 44.1598C95.7805 43.6649 95.9455 43.1878 96.1919 42.7517C96.6474 42.0735 97.4804 41.7689 98.276 41.5735C99.0715 41.378 99.9104 41.2487 100.582 40.7746C101.111 40.3499 101.541 39.8167 101.845 39.2113C102.271 38.4728 102.669 37.6681 102.634 36.8147C102.629 36.7049 102.617 36.5956 102.6 36.4871C102.461 37.1448 102.205 37.7725 101.845 38.3406V38.3406Z" fill="black"/>
</g>
<path opacity="0.1" d="M102.646 38.4267C103.385 39.7369 103.823 41.1945 103.929 42.6941C101.36 41.2573 98.9447 39.6796 97.7254 39.1307C95.601 38.1738 87.6568 38.3175 84.6705 38.4066C84.9829 37.8502 85.3478 37.3249 85.7601 36.8375C86.4425 36.0295 87.2444 35.3299 88.1382 34.7627C89.3219 34.0138 90.6463 33.5134 92.0306 33.2921C93.4148 33.0708 94.8298 33.1333 96.189 33.4757C97.5482 33.8181 98.8231 34.4332 99.9358 35.2835C101.048 36.1338 101.975 37.2013 102.66 38.4209L102.646 38.4267Z" fill="black"/>
<path opacity="0.1" d="M111.812 45.2747C110.426 45.7 108.163 44.8781 105.817 43.6999C105.492 43.288 105.196 42.854 104.932 42.401L112.847 43.8896C113.372 44.2459 113.504 44.7545 111.812 45.2747Z" fill="black"/>
<path d="M94.2664 28.4637C94.2664 28.4637 86.6998 28.0327 84.5725 32.1277L84.2295 35.7571L83.653 35.6939L83.5377 38.1624C83.5377 38.1624 95.1023 37.6595 97.734 38.8434C100.366 40.0274 108.543 45.9931 111.821 44.9873C115.098 43.9816 111.533 43.0476 111.533 43.0476C111.533 43.0476 107.021 41.1424 107.021 39.6481C107.021 38.1537 105.903 30.2598 94.2664 28.4637Z" fill="#444053"/>
<path opacity="0.1" d="M79.6724 163.009C79.6724 163.009 84.5006 167.679 86.5904 167.32C86.5904 167.32 80.6812 166.817 79.6724 163.009Z" fill="black"/>
<path opacity="0.1" d="M78.6635 165.173C78.6635 165.173 79.0958 167.575 80.2488 167.34C81.4018 167.104 78.6635 165.173 78.6635 165.173Z" fill="black"/>
<path opacity="0.1" d="M86.2301 205.324C86.2301 205.324 79.3755 210.64 80.5313 210.784C81.6872 210.927 86.2301 205.324 86.2301 205.324Z" fill="black"/>
<path d="M95.3993 99.8112L117.595 96.2104V117.16L96.5062 116.059L95.3993 99.8112Z" fill="#75D62A"/>
<path opacity="0.05" d="M95.3993 99.8112L117.595 96.2104V117.16L96.5062 116.059L95.3993 99.8112Z" fill="black"/>
<path d="M117.594 96.2104L144.211 98.1962L142.739 116.427L117.594 117.16V96.2104Z" fill="#75D62A"/>
<path opacity="0.1" d="M117.594 96.2104L144.211 98.1962L142.739 116.427L117.594 117.16V96.2104Z" fill="black"/>
<path d="M125.778 89.8167L117.594 96.2106L144.212 98.1963L148.561 91.6529L125.778 89.8167Z" fill="#75D62A"/>
<path d="M87.3628 92.8282L107.344 90.4028L117.594 96.2105L95.3992 99.8112L87.3628 92.8282Z" fill="#75D62A"/>
<path d="M122.46 101.65V130.292L112.063 129.229L107.54 128.769L106.163 128.626L101.643 128.163L95.3993 127.525V99.8113L117.592 101.317L122.46 101.65Z" fill="#75D62A"/>
<path d="M144.212 98.1963V126.128L135.878 127.723L131.825 128.499L122.46 130.292V101.65L144.212 98.1963Z" fill="#75D62A"/>
<path opacity="0.05" d="M144.212 98.1963V126.128L135.878 127.723L131.825 128.499L122.46 130.292V101.65L144.212 98.1963Z" fill="black"/>
<path d="M87.3628 105.84L95.3992 99.8113L122.46 101.65L118.477 108.34L87.3628 105.84Z" fill="#75D62A"/>
<path opacity="0.1" d="M87.3628 105.84L95.3992 99.8113L122.46 101.65L118.477 108.34L87.3628 105.84Z" fill="white"/>
<path d="M144.212 98.1963L122.46 101.65L129.54 107.973L152.839 104.076L144.212 98.1963Z" fill="#75D62A"/>
<path opacity="0.1" d="M144.212 98.1963L122.46 101.65L129.54 107.973L152.839 104.076L144.212 98.1963Z" fill="white"/>
<path opacity="0.1" d="M135.878 127.723L131.825 128.499V122.53L135.622 121.576L135.878 127.723Z" fill="white"/>
<path opacity="0.1" d="M112.063 125.281V129.229L107.54 128.769V125.281H112.063Z" fill="white"/>
<path opacity="0.1" d="M106.162 126.525V128.626L101.643 128.163V126.525H106.162Z" fill="white"/>
<path opacity="0.1" d="M119.739 123.186C116.64 127.137 106.407 124.407 106.407 124.407L98.8034 116.499L97.7715 115.427L99.7892 111.691C99.7892 111.691 100.366 111.881 101.328 112.214C106.425 113.99 122.348 119.861 119.739 123.186Z" fill="black"/>
<path d="M119.451 122.611C116.352 126.562 106.119 123.832 106.119 123.832L98.5152 115.924L97.4833 114.852L99.501 111.116C99.501 111.116 100.078 111.306 101.04 111.639C106.137 113.415 122.06 119.286 119.451 122.611Z" fill="#EFB7B9"/>
<path opacity="0.1" d="M101.029 111.639C100.608 112.846 99.5384 114.634 98.5036 115.924L97.4717 114.852L99.4894 111.116C99.4894 111.116 100.069 111.306 101.029 111.639Z" fill="black"/>
<path d="M75.853 66.9479C75.853 66.9479 68.2864 69.8216 68.2144 77.8679C68.1971 83.0529 68.4859 88.2345 69.0791 93.3857C69.0791 93.3857 66.9172 105.383 73.0425 108.832C79.1679 112.28 84.8608 115.154 84.8608 115.154C84.8608 115.154 94.6469 116.734 95.8489 117.237C97.0509 117.74 101.228 111.274 100.579 110.197C99.9305 109.119 91.0207 106.461 89.9628 104.665C88.9049 102.869 86.2992 101.659 86.2992 101.659C86.2992 101.659 83.6415 99.8515 83.5348 98.3428C83.4282 96.8341 84.2122 95.7565 84.4342 95.1099C84.6561 94.4633 85.4603 88.1413 85.4603 88.1413C85.4603 88.1413 89.761 65.7122 75.853 66.9479Z" fill="#DCE6F2"/>
<path opacity="0.1" d="M79.312 93.5869C79.312 93.5869 69.0791 94.7364 69.8718 98.3285C69.8718 98.3285 73.7603 94.7048 79.312 93.5869Z" fill="black"/>
<path opacity="0.1" d="M79.3119 95.0239C79.3119 95.0239 73.5037 99.2626 74.5702 99.55C75.6367 99.8373 79.3119 95.0239 79.3119 95.0239Z" fill="black"/>
<path opacity="0.1" d="M81.9062 96.748C81.9062 96.748 80.2487 99.7194 81.1856 99.5642C82.1224 99.4091 81.9062 96.748 81.9062 96.748Z" fill="black"/>
<path d="M188.449 32.2972C188.449 32.2972 177.496 31.6392 178.776 39.3004C178.776 39.3004 178.519 40.6539 179.75 41.2688C179.75 41.2688 179.77 40.6941 180.874 40.8924C181.267 40.9583 181.667 40.9776 182.065 40.9499C182.604 40.914 183.116 40.703 183.523 40.3493V40.3493C183.523 40.3493 186.605 39.082 187.804 34.0588C187.804 34.0588 188.691 32.961 188.668 32.6794L186.818 33.4697C186.818 33.4697 187.449 34.8002 186.95 35.9066C186.95 35.9066 186.893 33.5185 186.535 33.5731C186.463 33.5731 185.575 34.0358 185.575 34.0358C185.575 34.0358 186.662 36.352 185.841 38.0388C185.841 38.0388 186.152 35.1824 185.235 34.2025L183.932 34.9611C183.932 34.9611 185.204 37.3549 184.342 39.309C184.342 39.309 184.564 36.3117 183.659 35.145L182.477 36.0617C182.477 36.0617 183.673 38.4239 182.944 40.0446C182.944 40.0446 182.849 36.556 182.22 36.2916C182.22 36.2916 181.188 37.1997 181.033 37.5733C181.033 37.5733 181.848 39.2975 181.341 40.1912C181.341 40.1912 181.03 37.8664 180.765 37.8549C180.765 37.8549 179.736 39.3952 179.629 40.4412C179.679 39.466 179.984 38.5209 180.514 37.6997C179.921 37.8116 179.374 38.0943 178.94 38.513C178.94 38.513 179.098 37.4239 180.767 37.329C180.767 37.329 181.632 36.1594 181.846 36.0876C181.846 36.0876 180.185 35.9497 179.179 36.3951C179.179 36.3951 180.064 35.3692 182.151 35.8203L183.304 34.872C183.304 34.872 181.119 34.5847 180.191 34.9036C180.191 34.9036 181.257 33.9956 183.618 34.6565L184.887 33.9007C184.887 33.9007 183.024 33.4984 181.915 33.645C181.915 33.645 183.085 33.0156 185.258 33.6967L186.166 33.2915C186.166 33.2915 184.8 33.0243 184.402 32.9812C184.005 32.9381 183.981 32.8289 183.981 32.8289C184.846 32.6854 185.733 32.7849 186.544 33.1162C186.544 33.1162 188.49 32.4179 188.449 32.2972Z" fill="#75D62A"/>
<path opacity="0.1" d="M221.731 70.6147C221.731 70.6147 210.777 69.9567 212.057 77.6179C212.057 77.6179 211.8 78.9714 213.031 79.5863C213.031 79.5863 213.051 79.0116 214.158 79.2099C214.551 79.2758 214.951 79.2951 215.349 79.2674C215.881 79.2289 216.387 79.0191 216.79 78.6696V78.6696C216.79 78.6696 219.874 77.3995 221.073 72.3763C221.073 72.3763 221.958 71.2814 221.924 70.9998L220.073 71.7872C220.073 71.7872 220.704 73.1177 220.209 74.2241C220.209 74.2241 220.148 71.836 219.793 71.8906C219.721 71.8906 218.831 72.3533 218.831 72.3533C218.831 72.3533 219.92 74.6723 219.099 76.3563C219.099 76.3563 219.41 73.4999 218.491 72.52L217.202 73.27C217.202 73.27 218.473 75.6638 217.611 77.6179C217.611 77.6179 217.833 74.6206 216.928 73.4539L215.749 74.3735C215.749 74.3735 216.943 76.7328 216.216 78.3535C216.216 78.3535 216.121 74.8649 215.493 74.6005C215.493 74.6005 214.461 75.5086 214.302 75.8822C214.302 75.8822 215.121 77.6064 214.614 78.5001C214.614 78.5001 214.302 76.1753 214.037 76.1638C214.037 76.1638 213.008 77.7041 212.901 78.7501C212.953 77.7748 213.259 76.8298 213.789 76.0086C213.195 76.1207 212.647 76.4034 212.213 76.8219C212.213 76.8219 212.374 75.7327 214.043 75.6379C214.043 75.6379 214.893 74.4683 215.121 74.3965C215.121 74.3965 213.461 74.2585 212.455 74.704C212.455 74.704 213.34 73.6781 215.424 74.1436L216.577 73.1953C216.577 73.1953 214.389 72.9079 213.464 73.2269C213.464 73.2269 214.53 72.3188 216.891 72.9798L218.159 72.224C218.159 72.224 216.294 71.8245 215.184 71.9682C215.184 71.9682 216.358 71.3389 218.531 72.02L219.439 71.6148C219.439 71.6148 218.073 71.3475 217.672 71.3044C217.271 71.2613 217.251 71.1521 217.251 71.1521C218.116 71.0086 219.005 71.1081 219.817 71.4395C219.817 71.4395 221.765 70.7354 221.731 70.6147Z" fill="#75D62A"/>
<path opacity="0.1" d="M155.188 63.8128C155.188 63.8128 157.71 53.1543 149.916 53.117C149.916 53.117 148.622 52.6342 147.806 53.7377C147.806 53.7377 148.362 53.8555 147.985 54.9073C147.854 55.2792 147.767 55.6649 147.725 56.0567C147.67 56.5909 147.79 57.1287 148.068 57.5884V57.5884C148.068 57.5884 148.798 60.8357 153.545 62.8702C153.545 62.8702 154.479 63.9277 154.762 63.9392L154.3 61.988C154.3 61.988 152.876 62.3817 151.868 61.7006C151.868 61.7006 154.24 62.0484 154.243 61.7006C154.243 61.6288 153.954 60.6776 153.954 60.6776C153.954 60.6776 151.478 61.3501 149.951 60.2552C149.951 60.2552 152.721 61.0483 153.848 60.3155L153.329 58.9017C153.329 58.9017 150.735 59.7437 148.959 58.5626C148.959 58.5626 151.885 59.2925 153.193 58.6028L152.487 57.2867C152.487 57.2867 149.951 58.0568 148.472 57.0654C148.472 57.0654 151.931 57.5654 152.306 56.9964C152.306 56.9964 151.585 55.8269 151.242 55.6085C151.242 55.6085 149.409 56.12 148.602 55.4676C148.602 55.4676 150.951 55.5567 151.006 55.3096C151.006 55.3096 149.66 54.0366 148.633 53.7492C149.59 53.9663 150.473 54.4278 151.196 55.0883C151.185 54.4861 150.999 53.8999 150.66 53.4015C150.66 53.4015 151.709 53.7463 151.525 55.413C151.525 55.413 152.533 56.4476 152.565 56.6832C152.565 56.6832 152.983 55.0768 152.715 54.0107C152.715 54.0107 153.58 55.0567 152.764 57.0252L153.502 58.3327C153.502 58.3327 154.171 56.2349 154.001 55.2694C154.001 55.2694 154.718 56.4706 153.66 58.6775L154.194 60.054C154.194 60.054 154.906 58.2896 154.952 57.1804C154.952 57.1804 155.376 58.439 154.329 60.4592L154.577 61.419C154.577 61.419 155.073 60.123 155.182 59.7379C155.292 59.3529 155.404 59.35 155.404 59.35C155.4 60.2242 155.151 61.08 154.687 61.8213C154.687 61.8213 155.064 63.8272 155.188 63.8128Z" fill="#75D62A"/>
<path opacity="0.1" d="M131.2 67.4451C131.2 67.4451 122.403 60.8845 119.258 67.9911C119.258 67.9911 118.298 68.9825 118.987 70.1693C118.987 70.1693 119.315 69.7067 120.14 70.4739C120.432 70.7448 120.755 70.9801 121.103 71.1751C121.573 71.4365 122.117 71.5374 122.65 71.4625V71.4625C122.65 71.4625 125.925 72.0918 129.695 68.5543C129.695 68.5543 131.041 68.1233 131.168 67.8704L129.182 67.5227C129.182 67.5227 128.975 68.9796 127.951 69.632C127.951 69.632 129.217 67.6032 128.888 67.4566C128.822 67.425 127.83 67.3129 127.83 67.3129C127.83 67.3129 127.461 69.8475 125.847 70.8044C125.847 70.8044 127.683 68.5888 127.456 67.2669L125.948 67.1865C125.948 67.1865 125.691 69.8849 123.893 71.0458C123.893 71.0458 125.729 68.6635 125.622 67.1922L124.129 67.3129C124.129 67.3129 123.827 69.9366 122.325 70.8906C122.325 70.8906 124.167 67.925 123.789 67.3618C123.789 67.3618 122.426 67.5543 122.088 67.7785C122.088 67.7785 121.826 69.6578 120.904 70.1349C120.904 70.1349 121.927 68.0227 121.719 67.8762C121.719 67.8762 120.01 68.5974 119.338 69.4193C119.919 68.6324 120.696 68.0103 121.593 67.6147C121.035 67.3836 120.422 67.3197 119.828 67.4307C119.828 67.4307 120.561 66.6089 122.008 67.4451C122.008 67.4451 123.362 66.9365 123.593 66.9997C123.593 66.9997 122.281 65.9738 121.195 65.7956C121.195 65.7956 122.503 65.422 123.988 66.9451L125.484 66.7928C125.484 66.7928 123.821 65.3559 122.867 65.1146C122.867 65.1146 124.259 64.9393 125.864 66.7842L127.34 66.8503C127.34 66.8503 126.006 65.4939 125 65.0054C125 65.0054 126.323 65.1203 127.764 66.8819L128.747 67.0399C128.747 67.0399 127.752 66.0686 127.441 65.8157C127.13 65.5628 127.173 65.4565 127.173 65.4565C127.975 65.8105 128.663 66.3796 129.159 67.1003C129.159 67.1003 131.162 67.5629 131.2 67.4451Z" fill="#75D62A"/>
<path opacity="0.1" d="M160.489 6.49167C160.489 6.49167 151.692 -0.071802 148.547 7.03766C148.547 7.03766 147.587 8.02908 148.276 9.21591C148.276 9.21591 148.604 8.75325 149.429 9.52052C149.722 9.78995 150.046 10.0243 150.394 10.2188C150.865 10.4804 151.409 10.5813 151.942 10.5062V10.5062C151.942 10.5062 155.217 11.1355 158.987 7.59516C158.987 7.59516 160.333 7.16698 160.457 6.91122L158.471 6.56926C158.471 6.56926 158.267 8.02621 157.24 8.67853C157.24 8.67853 158.509 6.64972 158.18 6.50316C158.114 6.47155 157.122 6.35948 157.122 6.35948C157.122 6.35948 156.742 8.8998 155.128 9.85099C155.128 9.85099 156.961 7.63539 156.736 6.3135L155.228 6.23304C155.228 6.23304 154.969 8.93141 153.173 10.0895C153.173 10.0895 155.009 7.70723 154.903 6.23591L153.412 6.3566C153.412 6.3566 153.107 8.98314 151.605 9.9372C151.605 9.9372 153.45 6.97157 153.072 6.40833C153.072 6.40833 151.709 6.60087 151.372 6.82501C151.372 6.82501 151.109 8.7044 150.187 9.18143C150.187 9.18143 151.21 7.06928 151.003 6.91984C151.003 6.91984 149.293 7.64401 148.622 8.46588C149.202 7.67812 149.979 7.05586 150.876 6.66121C150.318 6.42846 149.703 6.3645 149.109 6.4773C149.109 6.4773 149.844 5.65543 151.291 6.49167C151.291 6.49167 152.646 5.98015 152.876 6.04625C152.876 6.04625 151.565 5.02035 150.478 4.83931C150.478 4.83931 151.784 4.4686 153.268 5.98878L154.764 5.83647C154.764 5.83647 153.104 4.39963 152.147 4.15537C152.147 4.15537 153.539 3.98295 155.148 5.82785L156.624 5.89107C156.624 5.89107 155.289 4.5347 154.28 4.04905C154.28 4.04905 155.606 4.16399 157.047 5.92555L158.027 6.0836C158.027 6.0836 157.03 5.1238 156.719 4.87666C156.407 4.62953 156.451 4.52033 156.451 4.52033C157.253 4.87396 157.94 5.44309 158.437 6.16407C158.437 6.16407 160.44 6.60087 160.489 6.49167Z" fill="#75D62A"/>
<path opacity="0.1" d="M194.105 14.8052C194.105 14.8052 190.588 4.42837 183.955 8.50611C183.955 8.50611 182.601 8.79348 182.494 10.147C182.494 10.147 183.027 9.95157 183.264 11.0436C183.351 11.432 183.484 11.809 183.659 12.1672C183.897 12.6491 184.285 13.0413 184.765 13.285V13.285C184.765 13.285 187.106 15.6558 192.225 14.8713C192.225 14.8713 193.577 15.2794 193.825 15.1385L192.384 13.7276C192.384 13.7276 191.387 14.8109 190.17 14.7678C190.17 14.7678 192.369 13.8138 192.188 13.5063C192.15 13.446 191.398 12.7936 191.398 12.7936C191.398 12.7936 189.651 14.6701 187.778 14.5466C187.778 14.5466 190.548 13.7592 191.113 12.535L189.919 11.6183C189.919 11.6183 188.173 13.6931 186.031 13.6299C186.031 13.6299 188.913 12.7074 189.643 11.4315L188.345 10.6872C188.345 10.6872 186.616 12.6787 184.823 12.6155C184.823 12.6155 188.028 11.216 188.037 10.5378C188.037 10.5378 186.806 9.92571 186.4 9.91996C186.4 9.91996 185.114 11.3194 184.094 11.193C184.094 11.193 186.135 10.0292 186.048 9.79064C186.048 9.79064 184.232 9.41994 183.209 9.7188C184.134 9.39754 185.128 9.32324 186.091 9.50327C185.762 8.99722 185.293 8.59776 184.739 8.35381C184.739 8.35381 185.812 8.0923 186.53 9.59811C186.53 9.59811 187.936 9.94582 188.086 10.1269C188.086 10.1269 187.59 8.54347 186.798 7.77907C186.798 7.77907 188.086 8.213 188.438 10.3136L189.758 11.0321C189.758 11.0321 189.213 8.90268 188.556 8.1584C188.556 8.1584 189.804 8.8021 190.075 11.2304L191.257 12.1183C191.257 12.1183 190.928 10.2447 190.375 9.27338C190.375 9.27338 191.401 10.1182 191.585 12.3856L192.303 13.0695C192.303 13.0695 192.038 11.7074 191.928 11.3223C191.819 10.9372 191.908 10.9114 191.908 10.9114C192.366 11.6568 192.609 12.5142 192.609 13.3885C192.609 13.3885 194.004 14.8799 194.105 14.8052Z" fill="#75D62A"/>
<path opacity="0.1" d="M171.154 15.3168C171.154 15.3168 160.23 14.1041 161.132 21.8314C161.132 21.8314 160.806 23.1705 161.997 23.843C161.997 23.843 162.046 23.2682 163.15 23.5268C163.54 23.6105 163.938 23.6501 164.337 23.6447C164.876 23.635 165.397 23.4503 165.822 23.1188V23.1188C165.822 23.1188 168.966 22.0067 170.434 17.0496C170.434 17.0496 171.373 16.0007 171.353 15.7162L169.465 16.4116C169.465 16.4116 170.042 17.7709 169.465 18.8514C169.465 18.8514 169.526 16.4634 169.177 16.5007C169.105 16.5007 168.194 16.9145 168.194 16.9145C168.194 16.9145 169.162 19.2853 168.257 20.9377C168.257 20.9377 168.713 18.0985 167.845 17.0755L166.505 17.7651C166.505 17.7651 167.658 20.2221 166.692 22.1302C166.692 22.1302 167.067 19.1474 166.222 17.9376L164.997 18.7997C164.997 18.7997 166.07 21.2164 165.26 22.7998C165.26 22.7998 165.343 19.3112 164.729 19.0152C164.729 19.0152 163.651 19.8773 163.475 20.2336C163.475 20.2336 164.205 21.9866 163.654 22.863C163.654 22.863 163.461 20.5267 163.207 20.5037C163.207 20.5037 162.1 21.9894 161.939 23.0383C162.039 22.0659 162.393 21.1365 162.965 20.3428C162.367 20.4252 161.806 20.6799 161.351 21.0756C161.351 21.0756 161.564 19.998 163.236 19.9865C163.236 19.9865 164.144 18.8629 164.389 18.8025C164.389 18.8025 162.737 18.5813 161.708 18.9749C161.708 18.9749 162.645 17.9922 164.703 18.564L165.917 17.6761C165.917 17.6761 163.723 17.2335 162.795 17.5209C162.795 17.5209 163.908 16.6588 166.231 17.449L167.537 16.7565C167.537 16.7565 165.695 16.2622 164.579 16.3513C164.579 16.3513 165.781 15.7766 167.917 16.5726L168.845 16.2133C168.845 16.2133 167.493 15.8771 167.096 15.8139C166.698 15.7507 166.684 15.6415 166.684 15.6415C167.555 15.5418 168.437 15.6851 169.232 16.0553C169.232 16.0553 171.174 15.4375 171.154 15.3168Z" fill="#75D62A"/>
<path opacity="0.1" d="M266.738 99.8516C266.738 99.8516 255.819 98.6389 256.721 106.358C256.721 106.358 256.395 107.697 257.586 108.369C257.586 108.369 257.635 107.794 258.739 108.05C259.129 108.137 259.527 108.176 259.927 108.168C260.466 108.16 260.987 107.975 261.411 107.642V107.642C261.411 107.642 264.556 106.53 266.009 101.576C266.009 101.576 266.948 100.524 266.928 100.242L265.04 100.935C265.04 100.935 265.617 102.297 265.04 103.378C265.04 103.378 265.101 100.987 264.752 101.027C264.68 101.027 263.769 101.438 263.769 101.438C263.769 101.438 264.737 103.809 263.832 105.461C263.832 105.461 264.288 102.625 263.42 101.599L262.08 102.291C262.08 102.291 263.233 104.748 262.27 106.656C262.27 106.656 262.642 103.674 261.797 102.461L260.572 103.323C260.572 103.323 261.645 105.74 260.835 107.32C260.835 107.32 260.918 103.832 260.304 103.538C260.304 103.538 259.229 104.401 259.05 104.757C259.05 104.757 259.782 106.51 259.229 107.386C259.229 107.386 259.036 105.05 258.782 105.027C258.782 105.027 257.675 106.513 257.514 107.562C257.614 106.589 257.968 105.66 258.54 104.866C257.941 104.947 257.38 105.202 256.926 105.599C256.926 105.599 257.139 104.518 258.811 104.507C258.811 104.507 259.722 103.383 259.964 103.326C259.964 103.326 258.312 103.102 257.283 103.495C257.283 103.495 258.22 102.515 260.281 103.087L261.492 102.199C261.492 102.199 259.324 101.791 258.382 102.073C258.382 102.073 259.494 101.211 261.818 101.998L263.123 101.309C263.123 101.309 261.281 100.814 260.166 100.903C260.166 100.903 261.368 100.329 263.504 101.125L264.432 100.763C264.432 100.763 263.08 100.426 262.682 100.366C262.284 100.306 262.27 100.194 262.27 100.194C263.141 100.092 264.024 100.234 264.818 100.604C264.818 100.604 266.767 99.9751 266.738 99.8516Z" fill="#75D62A"/>
<path opacity="0.1" d="M283.431 110.018C283.431 110.018 272.512 108.809 273.414 116.524C273.414 116.524 273.091 117.864 274.279 118.536C274.279 118.536 274.328 117.961 275.432 118.22C275.821 118.304 276.218 118.343 276.616 118.335C277.153 118.324 277.671 118.14 278.095 117.812V117.812C278.095 117.812 281.237 116.7 282.69 111.743C282.69 111.743 283.632 110.694 283.609 110.409L281.721 111.102C281.721 111.102 282.298 112.464 281.721 113.544C281.721 113.544 281.782 111.156 281.433 111.194C281.361 111.194 280.45 111.605 280.45 111.605C280.45 111.605 281.419 113.975 280.513 115.628C280.513 115.628 280.969 112.792 280.101 111.768L278.761 112.458C278.761 112.458 279.914 114.915 278.951 116.823C278.951 116.823 279.323 113.84 278.478 112.631L277.253 113.493C277.253 113.493 278.326 115.909 277.519 117.493C277.519 117.493 277.599 114.001 276.985 113.708C276.985 113.708 275.91 114.57 275.731 114.927C275.731 114.927 276.464 116.68 275.91 117.556C275.91 117.556 275.717 115.22 275.463 115.197C275.463 115.197 274.356 116.682 274.198 117.731C274.298 116.759 274.65 115.83 275.221 115.036C274.623 115.118 274.062 115.373 273.607 115.769C273.607 115.769 273.823 114.688 275.495 114.68C275.495 114.68 276.403 113.556 276.648 113.496C276.648 113.496 274.996 113.274 273.967 113.668C273.967 113.668 274.904 112.685 276.965 113.257L278.176 112.369C278.176 112.369 276.008 111.961 275.065 112.243C275.065 112.243 276.178 111.381 278.501 112.171L279.807 111.478C279.807 111.478 277.965 110.984 276.85 111.073C276.85 111.073 278.052 110.498 280.188 111.294L281.116 110.935C281.116 110.935 279.764 110.599 279.369 110.536C278.974 110.472 278.954 110.363 278.954 110.363C279.825 110.264 280.707 110.407 281.502 110.777C281.502 110.777 283.459 110.142 283.431 110.018Z" fill="#75D62A"/>
<path opacity="0.1" d="M246.37 24.3803C246.37 24.3803 237.573 17.8197 234.428 24.9263C234.428 24.9263 233.468 25.9177 234.157 27.1045C234.157 27.1045 234.486 26.6419 235.31 27.4091C235.602 27.68 235.925 27.9153 236.273 28.1103C236.744 28.3715 237.287 28.4723 237.821 28.3977V28.3977C237.821 28.3977 241.095 29.027 244.868 25.4895C244.868 25.4895 246.212 25.0585 246.339 24.8056L244.358 24.4493C244.358 24.4493 244.151 25.9062 243.127 26.5585C243.127 26.5585 244.393 24.5297 244.064 24.3832C243.998 24.3515 243.009 24.2395 243.009 24.2395C243.009 24.2395 242.637 26.7741 241.023 27.731C241.023 27.731 242.859 25.5154 242.632 24.1935L241.124 24.113C241.124 24.113 240.868 26.8114 239.069 27.9724C239.069 27.9724 240.908 25.5901 240.798 24.1188L239.305 24.2395C239.305 24.2395 239.017 26.8631 237.501 27.8172C237.501 27.8172 239.346 24.8516 238.965 24.2883C238.965 24.2883 237.602 24.4809 237.264 24.705C237.264 24.705 237.005 26.5844 236.083 27.0614C236.083 27.0614 237.103 24.9493 236.895 24.8027C236.895 24.8027 235.186 25.524 234.515 26.3459C235.095 25.559 235.872 24.9369 236.769 24.5412C236.211 24.3102 235.598 24.2463 235.005 24.3573C235.005 24.3573 235.74 23.5354 237.187 24.3717C237.187 24.3717 238.538 23.863 238.769 23.9262C238.769 23.9262 237.458 22.9003 236.371 22.7222C236.371 22.7222 237.679 22.3486 239.164 23.8716L240.66 23.7193C240.66 23.7193 239 22.2825 238.043 22.0411C238.043 22.0411 239.435 21.8658 241.04 23.7107L242.519 23.7768C242.519 23.7768 241.182 22.4204 240.176 21.9319C240.176 21.9319 241.502 22.0469 242.94 23.8084L243.923 23.9665C243.923 23.9665 242.929 22.9952 242.617 22.7423C242.306 22.4894 242.352 22.4061 242.352 22.4061C243.153 22.7607 243.839 23.3297 244.335 24.0498C244.335 24.0498 246.333 24.4981 246.37 24.3803Z" fill="#75D62A"/>
<path opacity="0.1" d="M253.167 71.7442C253.167 71.7442 250.135 61.218 243.315 64.9968C243.315 64.9968 241.949 65.2066 241.778 66.5687C241.778 66.5687 242.32 66.3992 242.508 67.4998C242.577 67.8952 242.693 68.281 242.854 68.6493C243.067 69.1445 243.438 69.5562 243.909 69.8217V69.8217C243.909 69.8217 246.14 72.2931 251.288 71.7413C251.288 71.7413 252.62 72.2069 252.873 72.0804L251.51 70.6034C251.51 70.6034 250.463 71.6436 249.253 71.5459C249.253 71.5459 251.49 70.6838 251.317 70.3763C251.282 70.3131 250.561 69.6263 250.561 69.6263C250.561 69.6263 248.734 71.4252 246.866 71.2155C246.866 71.2155 249.671 70.5545 250.288 69.3648L249.135 68.3935C249.135 68.3935 247.296 70.3878 245.16 70.2327C245.16 70.2327 248.065 69.4367 248.867 68.1981L247.604 67.3963C247.604 67.3963 245.774 69.3073 243.998 69.1637C243.998 69.1637 247.264 67.9079 247.304 67.2325C247.304 67.2325 246.099 66.5659 245.693 66.5429C245.693 66.5429 244.347 67.882 243.323 67.7096C243.323 67.7096 245.416 66.6377 245.341 66.3963C245.341 66.3963 243.543 65.9451 242.508 66.1952C243.445 65.9181 244.438 65.8894 245.39 66.1118C245.085 65.5918 244.634 65.1723 244.093 64.9049C244.093 64.9049 245.177 64.6893 245.823 66.2268C245.823 66.2268 247.209 66.6348 247.353 66.8245C247.353 66.8245 246.929 65.2181 246.171 64.4221C246.171 64.4221 247.44 64.9106 247.696 67.0256L248.982 67.8044C248.982 67.8044 248.532 65.6492 247.91 64.8905C247.91 64.8905 249.126 65.5888 249.29 68.0257L250.443 68.9654C250.443 68.9654 250.198 67.0802 249.691 66.0917C249.691 66.0917 250.68 66.9825 250.76 69.2527L251.446 69.9712C251.446 69.9712 251.245 68.5975 251.158 68.2067C251.072 67.8159 251.158 67.7613 251.158 67.7613C251.585 68.5257 251.789 69.3934 251.749 70.2671C251.749 70.2671 253.063 71.8132 253.167 71.7442Z" fill="#75D62A"/>
<path opacity="0.1" d="M185.596 95.4635C185.596 95.4635 179.707 86.216 174.238 91.7507C174.238 91.7507 172.987 92.3255 173.207 93.6905C173.207 93.6905 173.682 93.3743 174.172 94.3801C174.348 94.7366 174.567 95.0704 174.824 95.3744C175.167 95.7893 175.638 96.0801 176.164 96.202V96.202C176.164 96.202 179.003 97.9492 183.788 95.9721C183.788 95.9721 185.198 96.0469 185.405 95.8543L183.676 94.8198C183.676 94.8198 182.964 96.113 181.773 96.3572C181.773 96.3572 183.682 94.9204 183.425 94.656C183.376 94.6043 182.488 94.1502 182.488 94.1502C182.488 94.1502 181.24 96.386 179.39 96.7107C179.39 96.7107 181.894 95.2882 182.154 93.9721L180.773 93.3657C180.773 93.3657 179.571 95.794 177.478 96.2394C177.478 96.2394 180.044 94.6617 180.462 93.2479L179.021 92.8341C179.021 92.8341 177.804 95.1819 176.06 95.5411C176.06 95.5411 178.839 93.4203 178.686 92.7594C178.686 92.7594 177.343 92.4576 176.957 92.5496C176.957 92.5496 176.043 94.2135 175.011 94.3341C175.011 94.3341 176.717 92.7192 176.576 92.5065C176.576 92.5065 174.723 92.5783 173.8 93.11C174.623 92.5786 175.571 92.2714 176.55 92.2191C176.112 91.8056 175.562 91.5289 174.968 91.4231C174.968 91.4231 175.945 90.9145 176.985 92.2076C176.985 92.2076 178.427 92.2076 178.626 92.3513C178.626 92.3513 177.761 90.9145 176.813 90.3771C176.813 90.3771 178.167 90.4921 179.009 92.449L180.465 92.8341C180.465 92.8341 179.424 90.8944 178.614 90.3398C178.614 90.3398 179.978 90.6674 180.822 92.9634L182.183 93.5381C182.183 93.5381 181.416 91.7996 180.646 90.9863C180.646 90.9863 181.845 91.5611 182.563 93.7192L183.428 94.2163C183.428 94.2163 182.851 92.9548 182.647 92.6071C182.442 92.2594 182.523 92.1789 182.523 92.1789C183.147 92.7931 183.587 93.5682 183.794 94.4175C183.794 94.4175 185.518 95.5612 185.596 95.4635Z" fill="#75D62A"/>
<path d="M224.299 48.2144C224.299 48.2144 218.698 38.7917 213.057 44.1539C213.057 44.1539 211.789 44.6999 211.968 46.062C211.968 46.062 212.449 45.7574 212.91 46.7776C213.075 47.1402 213.283 47.4818 213.53 47.7949C213.861 48.2186 214.323 48.5217 214.844 48.657V48.657C214.844 48.657 217.626 50.4904 222.471 48.657C222.471 48.657 223.878 48.7748 224.091 48.588L222.399 47.5018C222.399 47.5018 221.65 48.769 220.451 48.9788C220.451 48.9788 222.402 47.5908 222.157 47.3293C222.105 47.2747 221.235 46.792 221.235 46.792C221.235 46.792 219.918 48.9903 218.064 49.2576C218.064 49.2576 220.612 47.9127 220.909 46.608L219.549 45.9701C219.549 45.9701 218.272 48.3639 216.164 48.7461C216.164 48.7461 218.779 47.2489 219.24 45.8494L217.816 45.3896C217.816 45.3896 216.525 47.6885 214.772 48.0046C214.772 48.0046 217.614 45.9701 217.482 45.3063C217.482 45.3063 216.15 44.9614 215.752 45.0419C215.752 45.0419 214.787 46.677 213.752 46.7661C213.752 46.7661 215.507 45.2086 215.375 44.9902C215.375 44.9902 213.518 45.0045 212.582 45.5074C213.421 45.0028 214.378 44.7254 215.357 44.7028C214.931 44.2756 214.389 43.9819 213.798 43.8579C213.798 43.8579 214.792 43.378 215.816 44.7028C215.816 44.7028 217.257 44.7517 217.45 44.8982C217.45 44.8982 216.634 43.4614 215.7 42.8694C215.7 42.8694 217.049 43.0246 217.831 45.0074L219.272 45.4385C219.272 45.4385 218.295 43.4671 217.499 42.8866C217.499 42.8866 218.854 43.2573 219.626 45.5764L220.967 46.2C220.967 46.2 220.255 44.4384 219.525 43.6137C219.525 43.6137 220.704 44.2258 221.359 46.404L222.203 46.927C222.203 46.927 221.661 45.6482 221.471 45.2948C221.281 44.9413 221.362 44.8637 221.362 44.8637C221.966 45.4969 222.382 46.2847 222.564 47.1397C222.564 47.1397 224.215 48.3093 224.299 48.2144Z" fill="#75D62A"/>
<path d="M188.864 68.0285C188.864 68.0285 189.153 57.0798 181.523 58.6229C181.523 58.6229 180.156 58.4131 179.58 59.6603C179.58 59.6603 180.156 59.6603 179.995 60.7667C179.942 61.1612 179.936 61.5605 179.978 61.9564C180.03 62.4933 180.258 62.9982 180.626 63.3932C180.626 63.3932 182.001 66.4221 187.077 67.4508C187.077 67.4508 188.204 68.2986 188.487 68.2526L187.622 66.4364C187.622 66.4364 186.31 67.1089 185.183 66.652C185.183 66.652 187.576 66.5112 187.51 66.1606C187.51 66.0887 187.014 65.2151 187.014 65.2151C187.014 65.2151 184.725 66.379 183.01 65.6146C183.01 65.6146 185.893 65.8301 186.835 64.8847L186.031 63.6116C186.031 63.6116 183.673 64.9565 181.684 64.1634C181.684 64.1634 184.696 64.2841 185.838 63.3444L184.878 62.1949C184.878 62.1949 182.552 63.4651 180.903 62.7926C180.903 62.7926 184.396 62.5828 184.65 61.9478C184.65 61.9478 183.705 60.9506 183.324 60.7983C183.324 60.7983 181.635 61.6604 180.713 61.1949C180.713 61.1949 183.019 60.8098 183.033 60.554C183.033 60.554 181.456 59.5798 180.393 59.508C181.373 59.5255 182.333 59.799 183.174 60.3011C183.043 59.7138 182.742 59.1774 182.31 58.758C182.31 58.758 183.408 58.8816 183.558 60.5397C183.558 60.5397 184.76 61.35 184.838 61.5742C184.838 61.5742 184.921 59.9161 184.44 58.9275C184.44 58.9275 185.5 59.7753 185.103 61.8673L186.091 62.9995C186.091 62.9995 186.316 60.8098 185.956 59.8988C185.956 59.8988 186.901 60.9305 186.319 63.3041L187.118 64.5427C187.118 64.5427 187.458 62.6719 187.276 61.5713C187.276 61.5713 187.945 62.7208 187.334 64.9076L187.772 65.7985C187.772 65.7985 187.994 64.4277 188.023 64.0283C188.052 63.6289 188.161 63.603 188.161 63.603C188.335 64.4602 188.266 65.3487 187.962 66.1692C187.962 66.1692 188.738 68.0658 188.864 68.0285Z" fill="#75D62A"/>
<path opacity="0.1" d="M201.478 207.149C205.765 207.149 209.241 206.563 209.241 205.841C209.241 205.119 205.765 204.534 201.478 204.534C197.191 204.534 193.716 205.119 193.716 205.841C193.716 206.563 197.191 207.149 201.478 207.149Z" fill="#75D62A"/>
<path opacity="0.1" d="M173.181 227C177.468 227 180.943 226.415 180.943 225.693C180.943 224.97 177.468 224.385 173.181 224.385C168.894 224.385 165.418 224.97 165.418 225.693C165.418 226.415 168.894 227 173.181 227Z" fill="#75D62A"/>
<path opacity="0.1" d="M26.8477 216.83C31.1348 216.83 34.6102 216.245 34.6102 215.523C34.6102 214.8 31.1348 214.215 26.8477 214.215C22.5605 214.215 19.0851 214.8 19.0851 215.523C19.0851 216.245 22.5605 216.83 26.8477 216.83Z" fill="#75D62A"/>
<path opacity="0.1" d="M232.059 225.692C236.346 225.692 239.821 225.107 239.821 224.385C239.821 223.663 236.346 223.077 232.059 223.077C227.771 223.077 224.296 223.663 224.296 224.385C224.296 225.107 227.771 225.692 232.059 225.692Z" fill="#75D62A"/>
<path d="M240.141 209.749C246.542 209.749 251.732 208.874 251.732 207.795C251.732 206.716 246.542 205.841 240.141 205.841C233.74 205.841 228.551 206.716 228.551 207.795C228.551 208.874 233.74 209.749 240.141 209.749Z" fill="#75D62A"/>
<path d="M244.946 204.597C245.475 204.168 245.861 203.589 246.05 202.936C246.194 202.275 245.912 201.485 245.281 201.243C244.572 200.973 243.814 201.462 243.237 201.956C242.661 202.45 242.006 203.016 241.254 202.913C241.64 202.563 241.929 202.12 242.093 201.626C242.256 201.132 242.289 200.604 242.188 200.094C242.155 199.882 242.065 199.684 241.928 199.519C241.533 199.1 240.821 199.281 240.349 199.611C238.85 200.663 238.432 202.692 238.423 204.519C238.273 203.861 238.4 203.174 238.397 202.508C238.394 201.841 238.207 201.071 237.633 200.72C237.281 200.525 236.883 200.425 236.48 200.433C235.806 200.41 235.054 200.476 234.595 200.968C234.019 201.577 234.172 202.603 234.667 203.266C235.163 203.93 235.921 204.358 236.619 204.824C237.177 205.156 237.654 205.609 238.014 206.149C238.055 206.224 238.089 206.303 238.115 206.384H242.341C243.287 205.909 244.163 205.308 244.946 204.597V204.597Z" fill="#75D62A"/>
<path d="M21.6361 209.445C21.6361 209.445 26.0607 209.31 27.4011 208.361C28.7415 207.413 34.2125 206.284 34.544 207.804C34.8754 209.324 41.1968 215.359 36.1985 215.399C31.2002 215.439 24.5849 214.623 23.2532 213.813C21.9215 213.002 21.6361 209.445 21.6361 209.445Z" fill="#A8A8A8"/>
<path opacity="0.2" d="M36.2821 214.87C31.2838 214.91 24.6685 214.094 23.3368 213.284C22.3221 212.669 21.9186 210.459 21.7831 209.439H21.6361C21.6361 209.439 21.9244 212.999 23.2474 213.807C24.5705 214.614 31.1945 215.433 36.1927 215.393C37.634 215.393 38.1327 214.87 38.1067 214.112C37.9049 214.574 37.3544 214.862 36.2821 214.87Z" fill="black"/>
</g>
</svg>
