<svg width="267" height="211" viewBox="0 0 267 211" fill="none" xmlns="http://www.w3.org/2000/svg">
<defs>
<linearGradient id="paint0_linear" x1="136.826" y1="211" x2="136.826" y2="0" gradientUnits="userSpaceOnUse">
<stop stop-color="#808080" stop-opacity="0.25"/>
<stop offset="0.53514" stop-color="#808080" stop-opacity="0.12"/>
<stop offset="1" stop-color="#808080" stop-opacity="0.1"/>
</linearGradient>
<linearGradient id="paint1_linear" x1="96862.6" y1="76220.3" x2="96862.6" y2="36728" gradientUnits="userSpaceOnUse">
<stop stop-color="#808080" stop-opacity="0.25"/>
<stop offset="0.53514" stop-color="#808080" stop-opacity="0.12"/>
<stop offset="1" stop-color="#808080" stop-opacity="0.1"/>
</linearGradient>
</defs>
<path d="M158.145 123.343C148.982 104.706 156.312 88.513 169.14 77.2086C186.855 68.9595 204.264 72.6258 217.092 89.124C225.463 84.2306 236.12 83.1712 244.886 85.1522C251.649 59.6701 245.316 29.1186 222.741 12.6482C193.376 -8.77595 152.209 -2.33112 130.791 27.0431C101.426 5.61892 60.2591 12.0637 38.8417 41.4379C17.4243 70.8121 23.8671 111.992 53.2321 133.416L159.572 211L187.771 171.921L158.145 123.343Z" fill="url(#paint0_linear)"/>
<path d="M217.495 91.6738C215.316 87.9419 212.424 84.6759 208.984 82.0623C205.543 79.4487 201.622 77.5388 197.443 76.4416C193.264 75.3444 188.91 75.0814 184.63 75.6677C180.35 76.254 176.227 77.6781 172.497 79.8586C168.767 82.0391 165.503 84.9333 162.892 88.3759C160.28 91.8185 158.372 95.742 157.277 99.9223C156.181 104.103 155.92 108.458 156.508 112.739C157.095 117.021 158.52 121.144 160.701 124.875L193.892 181.686L250.686 148.485C254.415 146.305 257.678 143.412 260.289 139.97C262.901 136.529 264.809 132.606 265.904 128.427C267 124.248 267.263 119.894 266.676 115.613C266.09 111.332 264.666 107.209 262.487 103.479C260.308 99.7487 257.415 96.4844 253.975 93.8723C250.534 91.2602 246.613 89.3515 242.435 88.2553C238.257 87.1591 233.904 86.8968 229.625 87.4833C225.346 88.0699 221.224 89.4938 217.495 91.6738V91.6738Z" fill="url(#paint1_linear)"/>
<path d="M217.221 92.7191C213.024 85.5354 206.146 80.3136 198.101 78.2026C190.055 76.0915 181.5 77.264 174.319 81.4622C167.137 85.6605 161.917 92.5404 159.807 100.589C157.696 108.637 158.869 117.194 163.066 124.378L194.714 178.55L248.87 146.892C252.426 144.813 255.537 142.054 258.027 138.772C260.517 135.49 262.337 131.75 263.382 127.765C264.427 123.78 264.677 119.628 264.118 115.546C263.558 111.465 262.201 107.533 260.123 103.976C258.045 100.419 255.287 97.3062 252.006 94.8154C248.725 92.3247 244.986 90.5047 241.003 89.4594C237.019 88.4141 232.868 88.164 228.788 88.7233C224.707 89.2826 220.777 90.6403 217.221 92.7191V92.7191Z" fill="#E53935"/>
<path opacity="0.2" d="M248.297 147.178C255.467 142.986 260.683 136.122 262.8 128.089C264.917 120.056 263.762 111.512 259.59 104.33C255.417 97.1472 248.567 91.9134 240.542 89.7763C232.517 87.6391 223.973 88.7731 216.782 92.9294L247.964 147.373L248.297 147.178Z" fill="black"/>
<path d="M242.762 83.7463C234.08 81.7725 224.971 83.1809 217.29 87.6848C212.586 79.6361 204.878 73.7861 195.862 71.4213C186.847 69.0566 177.261 70.3708 169.214 75.075C161.167 79.7792 155.317 87.488 152.951 96.5061C150.586 105.524 151.898 115.113 156.599 123.163L184.483 170.896L158.625 206.366L105.525 167.624L109.997 165.011C118.762 159.887 125.249 151.618 128.139 141.883C131.029 132.148 130.106 121.677 125.557 112.599C121.009 103.52 113.176 96.5138 103.65 93.0033C94.1237 89.4928 83.619 89.7414 74.2696 93.6986C72.6925 94.3687 71.1595 95.1383 69.6799 96.0028C65.8274 89.4054 60.165 84.0509 53.3637 80.5739C46.5624 77.0968 38.9072 75.6429 31.3052 76.3844C31.5529 73.2101 32.0408 70.0592 32.7645 66.9587C32.8446 66.6152 32.9305 66.2689 33.0163 65.9225C33.3597 64.5629 33.7488 63.2109 34.1838 61.8666C34.2181 61.7636 34.2496 61.6577 34.2868 61.5546C34.4842 60.9592 34.6931 60.3639 34.9077 59.7714C35.1538 59.0959 35.4142 58.4204 35.686 57.7506C35.8205 57.4157 35.9579 57.0808 36.1009 56.7487C36.2383 56.4253 36.3785 56.1019 36.5216 55.7784C36.5258 55.7686 36.5305 55.759 36.5359 55.7498C36.6818 55.4178 36.8335 55.0886 36.988 54.7594C37.0052 54.7194 37.0223 54.6793 37.0423 54.6421C37.1797 54.3501 37.3171 54.061 37.4601 53.7719C37.6204 53.4428 37.7835 53.1165 37.9494 52.7901C38.3014 52.0946 38.6705 51.4076 39.0539 50.7207C39.1913 50.4688 39.3344 50.2198 39.4803 49.9707C39.652 49.6702 39.8265 49.3697 40.0068 49.072C40.0898 48.9346 40.1728 48.7943 40.2586 48.6569C40.725 47.887 41.2115 47.1246 41.7179 46.3699C41.8353 46.1925 41.9554 46.015 42.0785 45.8375C42.2444 45.5942 42.4133 45.3509 42.5821 45.1105C42.7852 44.8243 42.9884 44.538 43.1973 44.2518C63.6737 16.1695 103.033 10.0069 131.106 30.4897C151.583 2.40736 190.942 -3.75525 219.018 16.7276C229.266 24.2046 237.016 34.6042 241.253 46.5633C245.49 58.5223 246.016 71.4829 242.762 83.7463V83.7463Z" fill="#75D62A"/>
<path d="M66.0081 101.673C61.2648 93.5627 53.4958 87.6687 44.4093 85.2868C35.3228 82.9049 25.6626 84.2302 17.5527 88.9712C9.44271 93.7122 3.54689 101.481 1.16149 110.569C-1.2239 119.657 0.0963986 129.321 4.83211 137.436L40.5838 198.631L101.76 162.868C109.868 158.124 115.761 150.352 118.142 141.263C120.523 132.173 119.199 122.509 114.459 114.397C109.719 106.284 101.953 100.386 92.8671 98.0002C83.7814 95.6142 74.1203 96.9353 66.0081 101.673V101.673Z" fill="#E53935"/>
<path opacity="0.2" d="M131.212 30.5069L74.2696 93.6986C72.6924 94.3687 71.1594 95.1383 69.6799 96.0028C65.8273 89.4054 60.165 84.0509 53.3637 80.5739C46.5624 77.0968 38.9072 75.6429 31.3052 76.3843C31.5529 73.2101 32.0408 70.0592 32.7645 66.9587C32.8446 66.6152 32.9305 66.2689 33.0163 65.9225C33.3568 64.5629 33.746 63.2109 34.1838 61.8666C34.2181 61.7635 34.2496 61.6576 34.2868 61.5546C34.4842 60.9592 34.6912 60.3648 34.9077 59.7714C35.1538 59.0958 35.4113 58.4203 35.686 57.7506C35.8205 57.4157 35.9579 57.0808 36.1009 56.7487C36.2383 56.4253 36.3785 56.1019 36.5216 55.7784C36.5257 55.7686 36.5305 55.759 36.5359 55.7498C36.6818 55.4178 36.8335 55.0886 36.988 54.7594C37.0051 54.7193 37.0223 54.6793 37.0423 54.6421C37.1797 54.3501 37.317 54.061 37.4601 53.7719C37.6204 53.4427 37.7835 53.1164 37.9494 52.7901C38.3014 52.0946 38.6705 51.4076 39.0539 50.7207C39.1913 50.4688 39.3344 50.2198 39.4803 49.9707C39.652 49.6702 39.8265 49.3696 40.0068 49.072C40.0898 48.9346 40.1728 48.7943 40.2586 48.6569C40.725 47.887 41.2115 47.1246 41.7179 46.3699C41.8353 46.1925 41.9554 46.015 42.0785 45.8375C42.2444 45.5942 42.4133 45.3509 42.5821 45.1105C42.7852 44.8243 42.9884 44.538 43.1973 44.2518C63.6737 16.1694 103.033 10.0068 131.106 30.4897C131.135 30.4553 131.161 30.4181 131.189 30.3838L131.212 30.5069Z" fill="black"/>
</svg>
