<svg width="25" height="25" viewBox="0 0 25 25" fill="none" xmlns="http://www.w3.org/2000/svg">
<defs>
<clipPath id="clip0">
<rect width="25" height="25" fill="white"/>
</clipPath>
</defs>
<g clip-path="url(#clip0)">
<path d="M24.3652 6.66995L12.9355 1.57294C12.6588 1.44859 12.3426 1.44859 12.0644 1.57294L0.635316 6.66995C0.262246 6.83606 0.0158792 7.20168 0.00204383 7.61035C-0.0113061 8.01822 0.207066 8.3993 0.567838 8.59121L11.9968 14.6863C12.1544 14.7709 12.3271 14.8122 12.5003 14.8122C12.6744 14.8122 12.8469 14.7709 13.0048 14.6863L24.4343 8.59121C24.7947 8.3993 25.0133 8.01822 25.0002 7.61035C24.9846 7.20168 24.7388 6.83606 24.3652 6.66995Z" fill="black"/>
<path d="M23.4253 11.2305L12.499 17.0592L1.57441 11.2305C1.05141 10.9514 0.403817 11.1494 0.126624 11.6714C-0.152512 12.1932 0.0454721 12.8407 0.56701 13.119L11.9959 19.2158C12.1536 19.2998 12.3263 19.3416 12.4995 19.3416C12.6736 19.3416 12.8461 19.3003 13.004 19.2158L24.4335 13.119C24.9538 12.8407 25.1515 12.1932 24.874 11.6714C24.5947 11.1493 23.9467 10.9514 23.4253 11.2305Z" fill="black"/>
<path d="M23.4253 15.4112L12.499 21.2379L1.57441 15.4112C1.05141 15.1319 0.403817 15.3301 0.126624 15.8514C-0.152512 16.3732 0.0454721 17.0213 0.56701 17.2992L11.9959 23.3941C12.1536 23.4786 12.3263 23.5204 12.4995 23.5204C12.6736 23.5204 12.8461 23.4792 13.004 23.3941L24.4335 17.2992C24.9538 17.0213 25.1515 16.3733 24.874 15.8514C24.5947 15.3301 23.9475 15.1318 23.4253 15.4112Z" fill="black"/>
</g>

</svg>
