<svg width="245" height="207" fill="none" xmlns="http://www.w3.org/2000/svg">
<defs><linearGradient id="paint0_linear" x1="206.472" y1="178.399" x2="206.472" y2="29.7332" gradientUnits="userSpaceOnUse"><stop stop-color="gray" stop-opacity=".25"/><stop offset=".54" stop-color="gray" stop-opacity=".12"/><stop offset="1" stop-color="gray" stop-opacity=".1"/></linearGradient><linearGradient id="paint1_linear" x1="10518.2" y1="93987.3" x2="10518.2" y2="15937.6" gradientUnits="userSpaceOnUse"><stop stop-color="gray" stop-opacity=".25"/><stop offset=".54" stop-color="gray" stop-opacity=".12"/><stop offset="1" stop-color="gray" stop-opacity=".1"/></linearGradient><linearGradient id="paint2_linear" x1="38.5282" y1="53.803" x2="38.5282" y2="45.0246" gradientUnits="userSpaceOnUse"><stop stop-opacity=".12"/><stop offset=".55" stop-opacity=".09"/><stop offset="1" stop-opacity=".02"/></linearGradient><linearGradient id="paint3_linear" x1="35537.6" y1="2138.81" x2="35537.6" y2="1866.68" gradientUnits="userSpaceOnUse"><stop stop-opacity=".12"/><stop offset=".55" stop-opacity=".09"/><stop offset="1" stop-opacity=".02"/></linearGradient><linearGradient id="paint4_linear" x1="35489" y1="2573.77" x2="35489" y2="2301.64" gradientUnits="userSpaceOnUse"><stop stop-opacity=".12"/><stop offset=".55" stop-opacity=".09"/><stop offset="1" stop-opacity=".02"/></linearGradient><linearGradient id="paint5_linear" x1="35489" y1="3008.72" x2="35489" y2="2736.59" gradientUnits="userSpaceOnUse"><stop stop-opacity=".12"/><stop offset=".55" stop-opacity=".09"/><stop offset="1" stop-opacity=".02"/></linearGradient><linearGradient id="paint6_linear" x1="35489" y1="3443.67" x2="35489" y2="3171.54" gradientUnits="userSpaceOnUse"><stop stop-opacity=".12"/><stop offset=".55" stop-opacity=".09"/><stop offset="1" stop-opacity=".02"/></linearGradient><linearGradient id="paint7_linear" x1="35489" y1="3878.63" x2="35489" y2="3606.5" gradientUnits="userSpaceOnUse"><stop stop-opacity=".12"/><stop offset=".55" stop-opacity=".09"/><stop offset="1" stop-opacity=".02"/></linearGradient><linearGradient id="paint8_linear" x1="35489" y1="4313.58" x2="35489" y2="4041.45" gradientUnits="userSpaceOnUse"><stop stop-opacity=".12"/><stop offset=".55" stop-opacity=".09"/><stop offset="1" stop-opacity=".02"/></linearGradient><linearGradient id="paint9_linear" x1="35489" y1="4748.54" x2="35489" y2="4476.41" gradientUnits="userSpaceOnUse"><stop stop-opacity=".12"/><stop offset=".55" stop-opacity=".09"/><stop offset="1" stop-opacity=".02"/></linearGradient><linearGradient id="paint10_linear" x1="35489" y1="5183.49" x2="35489" y2="4911.36" gradientUnits="userSpaceOnUse"><stop stop-opacity=".12"/><stop offset=".55" stop-opacity=".09"/><stop offset="1" stop-opacity=".02"/></linearGradient><linearGradient id="paint11_linear" x1="35489" y1="45.0246" x2="35489" y2="45.0246" gradientUnits="userSpaceOnUse"><stop stop-opacity=".12"/><stop offset=".55" stop-opacity=".09"/><stop offset="1" stop-opacity=".02"/></linearGradient><linearGradient id="paint12_linear" x1="2475.97" y1="2020.87" x2="10729.5" y2="2020.87" gradientUnits="userSpaceOnUse"><stop stop-opacity=".12"/><stop offset=".55" stop-opacity=".09"/><stop offset="1" stop-opacity=".02"/></linearGradient><linearGradient id="paint13_linear" x1="2475.97" y1="2446.76" x2="10729.5" y2="2446.76" gradientUnits="userSpaceOnUse"><stop stop-opacity=".12"/><stop offset=".55" stop-opacity=".09"/><stop offset="1" stop-opacity=".02"/></linearGradient><linearGradient id="paint14_linear" x1="2475.97" y1="2872.65" x2="10729.5" y2="2872.65" gradientUnits="userSpaceOnUse"><stop stop-opacity=".12"/><stop offset=".55" stop-opacity=".09"/><stop offset="1" stop-opacity=".02"/></linearGradient><linearGradient id="paint15_linear" x1="2475.97" y1="3307.61" x2="10729.5" y2="3307.61" gradientUnits="userSpaceOnUse"><stop stop-opacity=".12"/><stop offset=".55" stop-opacity=".09"/><stop offset="1" stop-opacity=".02"/></linearGradient><linearGradient id="paint16_linear" x1="2475.97" y1="3742.56" x2="10729.5" y2="3742.56" gradientUnits="userSpaceOnUse"><stop stop-opacity=".12"/><stop offset=".55" stop-opacity=".09"/><stop offset="1" stop-opacity=".02"/></linearGradient><linearGradient id="paint17_linear" x1="2475.97" y1="4177.51" x2="10729.5" y2="4177.51" gradientUnits="userSpaceOnUse"><stop stop-opacity=".12"/><stop offset=".55" stop-opacity=".09"/><stop offset="1" stop-opacity=".02"/></linearGradient><linearGradient id="paint18_linear" x1="22503.9" y1="7327.71" x2="125135" y2="7327.71" gradientUnits="userSpaceOnUse"><stop stop-color="gray" stop-opacity=".25"/><stop offset=".54" stop-color="gray" stop-opacity=".12"/><stop offset="1" stop-color="gray" stop-opacity=".1"/></linearGradient><linearGradient id="paint19_linear" x1="73952.7" y1="997.054" x2="73952.7" y2="566.347" gradientUnits="userSpaceOnUse"><stop stop-color="gray" stop-opacity=".25"/><stop offset=".54" stop-color="gray" stop-opacity=".12"/><stop offset="1" stop-color="gray" stop-opacity=".1"/></linearGradient><linearGradient id="paint20_linear" x1="90022.6" y1="59730.3" x2="90022.6" y2="34446.2" gradientUnits="userSpaceOnUse"><stop stop-color="gray" stop-opacity=".25"/><stop offset=".54" stop-color="gray" stop-opacity=".12"/><stop offset="1" stop-color="gray" stop-opacity=".1"/></linearGradient></defs><path opacity=".2" d="M225.806 0H19.4758v207H225.806V0z" fill="#90D633"/><path opacity=".5" d="M194.476 19.3266H50.5242V187.957H194.476V19.3266z" fill="#90D633"/><path d="M245 29.7332h-77.056V178.399H245V29.7332z" fill="url(#paint0_linear)"/><path d="M77.0564 30.2996H0V178.966h77.0564V30.2996z" fill="url(#paint1_linear)"/><path d="M242.46 31.9987h-71.976V175.285h71.976V31.9987zM2.54032 175.285H74.5161V31.9986H2.54032V175.285z" fill="#90D633"/><path d="M62.6613 45.0246H14.3952v8.7784h48.2661v-8.7784z" fill="url(#paint2_linear)"/><path d="M230.887 58.3337h-48.266v8.7784h48.266v-8.7784z" fill="url(#paint3_linear)"/><path d="M230.605 71.9261h-48.266v8.7784h48.266v-8.7784z" fill="url(#paint4_linear)"/><path d="M230.605 85.5184h-48.266v8.7784h48.266v-8.7784z" fill="url(#paint5_linear)"/><path d="M230.605 99.1108h-48.266v8.7782h48.266v-8.7782z" fill="url(#paint6_linear)"/><path d="M230.605 112.703h-48.266v8.779h48.266v-8.779z" fill="url(#paint7_linear)"/><path d="M230.605 126.296h-48.266v8.778h48.266v-8.778z" fill="url(#paint8_linear)"/><path d="M230.605 139.888h-48.266v8.778h48.266v-8.778z" fill="url(#paint9_linear)"/><path d="M230.605 153.48h-48.266v8.779h48.266v-8.779z" fill="url(#paint10_linear)"/><path d="M230.605 45.0246h-48.266v8.7784h48.266v-8.7784z" fill="url(#paint11_linear)"/><path d="M62.6613 58.9001H14.3952v8.7784h48.2661v-8.7784z" fill="url(#paint12_linear)"/><path d="M62.6613 72.2094H14.3952v8.7783h48.2661v-8.7783z" fill="url(#paint13_linear)"/><path d="M62.6613 85.5184H14.3952v8.7784h48.2661v-8.7784z" fill="url(#paint14_linear)"/><path d="M62.6613 99.1108H14.3952v8.7782h48.2661v-8.7782z" fill="url(#paint15_linear)"/><path d="M62.6613 112.703H14.3952v8.779h48.2661v-8.779z" fill="url(#paint16_linear)"/><path d="M61.8145 46.1573H15.5242v6.7962h46.2903v-6.7962zM61.6734 59.4664H15.3831v6.7962h46.2903v-6.7962zM61.6734 73.0588H15.3831v6.7962h46.2903v-6.7962zM61.6734 86.6511H15.3831v6.7962h46.2903v-6.7962zM61.6734 100.244H15.3831v6.796h46.2903v-6.796zM61.6734 113.836H15.3831v6.796h46.2903v-6.796z" fill="#fff"/><path d="M62.6613 126.296H14.3952v8.778h48.2661v-8.778z" fill="url(#paint17_linear)"/><path d="M61.6734 127.428H15.3831v6.796h46.2903v-6.796z" fill="#fff"/><path d="M61.6734 127.428H15.3831v6.796h46.2903v-6.796zM61.6734 141.021H15.3831v6.796h46.2903v-6.796zM61.6734 154.613H15.3831v6.796h46.2903v-6.796zM229.758 45.8741h-46.29v6.7962h46.29v-6.7962zM229.758 59.4664h-46.29v6.7962h46.29v-6.7962zM229.758 73.0588h-46.29v6.7962h46.29v-6.7962zM229.758 86.6511h-46.29v6.7962h46.29v-6.7962zM229.758 100.244h-46.29v6.796h46.29v-6.796zM229.758 113.836h-46.29v6.796h46.29v-6.796zM229.758 127.428h-46.29v6.796h46.29v-6.796zM229.758 141.021h-46.29v6.796h46.29v-6.796zM229.758 154.613h-46.29v6.796h46.29v-6.796z" fill="#fff"/><path d="M207.46 182.647H37.2581v10.761H207.46v-10.761z" fill="url(#paint18_linear)"/><path d="M206.331 183.78H38.6694v8.495H206.331v-8.495z" fill="#90D633"/><path d="M207.742 14.1587H37.8226v11.0438H207.742V14.1587z" fill="url(#paint19_linear)"/><path d="M206.331 15.0082H38.6694v8.4953H206.331v-8.4953z" fill="#90D633"/><path opacity=".5" d="M163.992 31.9987H81.5726V175.285h82.4194V31.9987z" fill="#263238"/><path d="M186.194 94.311c1.976 2.6561-.982 5.794-.982 5.794l.497.172c-.731.813-3.619 4.48-14.751 21.069-14.254 21.238-33.462 26.536-33.462 26.536-2.333-1.83-4.988-3.204-7.827-4.052v-2.005c3.627-1.073 6.941-3.011 9.659-5.649 2.718-2.637 4.76-5.895 5.95-9.495 1.7-3.375 2.583-7.104 2.58-10.886 0-13.592-11.225-24.6188-25.07-24.6188S97.7178 102.2 97.7178 115.795c-.0035 3.782.8803 7.511 2.5802 10.886 1.19 3.6 3.231 6.858 5.95 9.495 2.718 2.638 6.032 4.576 9.658 5.649v2.005c-2.838.848-5.493 2.222-7.827 4.052 0 0-19.2157-5.304-33.4697-26.542-11.1323-16.588-14.0198-20.258-14.7508-21.068l.4967-.173s-2.9496-3.1375-.9822-5.7937c1.9673-2.6562-13.0262-5.7937-11.3073 0 1.719 5.7937 3.9319 8.6907 3.9319 8.6907s31.3871 49.663 47.7722 57.869a22.84721 22.84721 0 00-.5815 5.131v9.657h47.1877v-9.657c.001-1.727-.194-3.448-.581-5.131 16.371-8.212 47.772-57.866 47.772-57.866s2.213-2.897 3.932-8.6909c1.719-5.7937-13.272-2.6533-11.305.0029z" fill="url(#paint20_linear)"/><path d="M122.782 141.171c13.26 0 24.009-10.784 24.009-24.087 0-13.303-10.749-24.0869-24.009-24.0869-13.259 0-24.0086 10.7839-24.0086 24.0869s10.7496 24.087 24.0086 24.087z" fill="#263238"/><path d="M122.782 143.535c12.481 0 22.598-10.15 22.598-22.671 0-12.521-10.117-22.6706-22.598-22.6706-12.48 0-22.597 10.1496-22.597 22.6706s10.117 22.671 22.597 22.671z" fill="#F8C198"/><path d="M113.837 118.738c1.561 0 2.826-1.269 2.826-2.835 0-1.565-1.265-2.835-2.826-2.835-1.56 0-2.825 1.27-2.825 2.835 0 1.566 1.265 2.835 2.825 2.835zM132.198 118.738c1.561 0 2.826-1.269 2.826-2.835 0-1.565-1.265-2.835-2.826-2.835-1.56 0-2.825 1.27-2.825 2.835 0 1.566 1.265 2.835 2.825 2.835z" fill="#263238"/><path d="M129.373 131.251c0 1.699-2.95 4.488-6.591 4.488s-6.59-2.789-6.59-4.488c0-1.699 2.949-1.654 6.59-1.654s6.591-.045 6.591 1.654zM114.543 116.849c.521 0 .943-.424.943-.946s-.422-.946-.943-.946c-.521 0-.943.424-.943.946s.422.946.943.946zM133.138 116.849c.521 0 .943-.424.943-.946s-.422-.946-.943-.946c-.52 0-.942.424-.942.946s.422.946.942.946z" fill="#fff"/><path d="M125.04 108.28c-1.377 0-2.613-1.201-2.76-2.574-.048-.691.116-1.379.469-1.974.353-.594.879-1.067 1.507-1.353.128-.067.27-.104.415-.108.474 0 .708.566.86 1.017.475 1.393 1.316 2.752 2.637 3.398 1.321.645 3.167.314 3.864-.983-1.869-.835-2.668-3.458-1.581-5.196.421-.6713 1.076-1.2405 1.208-2.0221.243-1.4158-1.304-2.4466-2.673-2.8713-3.951-1.2262-17.726-1.3621-18.485 4.5534-.796 6.241 10.201 8.94 14.539 8.113z" fill="#263238"/><path d="M102.591 124.841c.725-.287.656-2.192-.156-4.255-.811-2.063-2.056-3.502-2.7814-3.215-.725.287-.6552 2.192.1561 4.255.8113 2.063 2.0563 3.502 2.7813 3.215zM145.748 121.611c.811-2.063.881-3.968.156-4.255-.725-.287-1.97 1.153-2.781 3.216-.812 2.062-.881 3.967-.156 4.254.725.287 1.97-1.152 2.781-3.215z" fill="#F8C198"/><path d="M136.87 148.479s18.395-5.182 32.047-25.964c13.653-20.782 14.359-20.839 14.359-20.839l7.296 2.892s-33.893 54.788-48.486 57.623c-14.593 2.834-5.216-13.712-5.216-13.712z" fill="#FF9800"/><path d="M182.573 101.736s2.823-3.0699.943-5.6637c-1.88-2.5939 12.476-5.6635 10.827 0-1.648 5.6637-3.765 8.4947-3.765 8.4947l-8.005-2.831z" fill="#F8C198"/><path d="M108.695 148.479s-18.395-5.182-32.0478-25.964c-13.6528-20.782-14.3585-20.839-14.3585-20.839l-7.2964 2.892s33.8964 54.788 48.4917 57.623c14.596 2.834 5.211-13.712 5.211-13.712z" fill="#FF9800"/><path d="M62.9915 101.736s-2.8225-3.0699-.9427-5.6637c1.8798-2.5939-12.4758-5.6635-10.8274 0 1.6484 5.6637 3.7653 8.4947 3.7653 8.4947l8.0048-2.831z" fill="#F8C198"/><g opacity=".2" fill="#fff"><path opacity=".2" d="M130.485 97.0634c-.135.7816-.79 1.3479-1.208 2.0219-.951 1.5237-.457 3.7267.937 4.8137-.2-.51-.283-1.058-.241-1.605.041-.546.206-1.076.481-1.549.421-.671 1.075-1.2406 1.208-2.0222.153-.8863-.398-1.6226-1.166-2.1521.021.1639.017.3299-.011.4927zM124.606 102.512c-.091-.213-.175-.428-.249-.643-.152-.45-.386-1.003-.861-1.017-.144.005-.286.041-.415.108-.627.287-1.153.759-1.506 1.354-.353.594-.517 1.283-.469 1.973.052.417.192.817.409 1.176.217.359.508.667.852.906-.039-.14-.068-.283-.084-.428-.048-.691.116-1.379.469-1.974.353-.594.879-1.067 1.506-1.353.11-.053.227-.088.348-.102zM122.616 106.997c-3.433.145-8.97-1.169-11.7-3.964 2.038 4.349 10.458 6.17 14.113 5.471a2.837 2.837 0 01-1.408-.43c-.423-.264-.77-.636-1.005-1.077zM130.595 104.664c-.824.971-2.422 1.175-3.599.6-.384-.19-.736-.439-1.044-.739.456 1.022 1.237 1.862 2.221 2.39 1.321.643 3.167.314 3.865-.983-.594-.273-1.095-.713-1.443-1.268z"/></g><path opacity=".2" d="M189.635 104.568s-33.896 54.788-48.506 57.623c-.844.169-1.7.274-2.56.314 1.176.034 2.352-.072 3.503-.314 14.595-2.832 48.492-57.623 48.492-57.623l-.757-.269c-.104.178-.172.269-.172.269zM55.9294 104.568s33.8964 54.788 48.5056 57.623c.845.169 1.701.274 2.561.314-1.176.034-2.352-.072-3.503-.314-14.5958-2.832-48.4922-57.623-48.4922-57.623l.7565-.269c.1044.178.1721.269.1721.269z" fill="#fff"/><path d="M122.782 143.535c2.968 0 5.906.587 8.648 1.726s5.233 2.809 7.331 4.914c2.099 2.105 3.763 4.605 4.899 7.355 1.135 2.751 1.72 5.699 1.72 8.676v9.447h-45.195v-9.447c0-2.977.584-5.925 1.72-8.676 1.135-2.75 2.8-5.25 4.898-7.355 2.099-2.105 4.59-3.775 7.332-4.914 2.741-1.139 5.68-1.726 8.647-1.726z" fill="#FF9800"/><path opacity=".2" d="M123.017 143.654c-.823 0-1.644.044-2.462.133.282 0 .539-.017.813-.017 5.993 0 11.741 2.389 15.979 6.64 4.238 4.252 6.619 10.018 6.619 16.031v9.328h1.648v-9.444c0-6.013-2.381-11.779-6.619-16.031-4.237-4.251-9.985-6.64-15.978-6.64z" fill="#fff"/><path opacity=".2" d="M122.548 143.654c.822 0 1.644.044 2.461.133-.282 0-.539-.017-.813-.017-5.993 0-11.741 2.389-15.979 6.64-4.237 4.252-6.618 10.018-6.618 16.031v9.328h-1.6486v-9.444c0-6.013 2.3806-11.779 6.6186-16.031 4.238-4.251 9.986-6.64 15.979-6.64z" fill="#fff"/><path d="M129.373 143.889c0-3.652-2.951-6.612-6.591-6.612s-6.59 2.96-6.59 6.612v2.716c0 3.651 2.95 6.612 6.59 6.612 3.64 0 6.591-2.961 6.591-6.612v-2.716z" fill="#F8C198"/></svg>