<svg width="276" height="211" viewBox="0 0 276 211" fill="none" xmlns="http://www.w3.org/2000/svg">
<path d="M275.899 123.589C275.897 119.033 274.883 114.535 272.932 110.42C270.982 106.306 268.142 102.678 264.62 99.7991C261.098 96.9204 256.981 94.8633 252.568 93.7767C248.154 92.69 243.555 92.6012 239.103 93.5165C234.651 94.4318 230.459 96.3284 226.828 99.0688C223.198 101.809 220.221 105.325 218.114 109.361C216.006 113.397 214.821 117.853 214.643 122.405C214.466 126.957 215.3 131.492 217.087 135.681C217.057 135.647 217.026 135.615 216.996 135.581C218.357 138.761 220.244 141.687 222.577 144.238C222.584 144.245 222.591 144.253 222.598 144.26C222.786 144.466 222.975 144.671 223.169 144.871C225.969 147.799 229.321 150.139 233.031 151.758C236.741 153.376 240.734 154.239 244.78 154.297L243.744 210.67H246.943L246.295 173.463L250.922 171.021L250.217 169.677L246.266 171.763L245.962 154.294C253.964 154.111 261.577 150.795 267.172 145.056C272.766 139.318 275.899 131.613 275.899 123.589Z" fill="#75D62A" fill-opacity="0.79"/>
<path d="M184.96 108.618C184.957 103.279 183.769 98.0081 181.483 93.1862C179.197 88.3643 175.869 84.1125 171.742 80.739C167.614 77.3655 162.789 74.9547 157.617 73.6813C152.445 72.4078 147.055 72.3037 141.838 73.3763C136.621 74.449 131.707 76.6716 127.453 79.8832C123.199 83.0947 119.71 87.2148 117.24 91.9448C114.771 96.6748 113.381 101.896 113.173 107.231C112.965 112.566 113.943 117.88 116.037 122.789C116.002 122.75 115.966 122.712 115.931 122.673C117.526 126.399 119.737 129.829 122.471 132.817C122.479 132.826 122.487 132.835 122.495 132.844C122.716 133.085 122.938 133.325 123.165 133.559C126.446 136.99 130.374 139.733 134.722 141.63C139.07 143.526 143.75 144.538 148.49 144.606L147.277 210.67H151.026L150.267 167.067L155.689 164.205L154.862 162.63L150.232 165.074L149.876 144.603C159.254 144.387 168.175 140.501 174.732 133.777C181.288 127.052 184.959 118.022 184.96 108.618Z" fill="#7FBD2C"/>
<path d="M81.8237 94.5373C81.8205 88.4618 80.4692 82.4631 77.8676 76.9759C75.2661 71.4887 71.4794 66.6503 66.7821 62.8113C62.0848 58.9723 56.5944 56.2288 50.7088 54.7797C44.8231 53.3306 38.6896 53.212 32.7526 54.4327C26.8156 55.6534 21.2238 58.1827 16.3824 61.8373C11.541 65.492 7.5712 70.1805 4.76063 75.5632C1.95005 80.9458 0.369093 86.8878 0.132306 92.9587C-0.104481 99.0295 1.00883 105.077 3.39158 110.663C3.35162 110.619 3.31033 110.575 3.27057 110.531C5.08551 114.771 7.60155 118.674 10.7126 122.075C10.7219 122.085 10.7315 122.095 10.7408 122.105C10.9918 122.38 11.2443 122.653 11.5025 122.92C15.2366 126.824 19.7071 129.946 24.6545 132.104C29.6019 134.262 34.9276 135.413 40.3225 135.491L38.9418 210.67H43.2076L42.3442 161.051L48.5148 157.794L47.5735 156.002L42.3047 158.783L41.8994 135.487C52.5713 135.242 62.7237 130.82 70.1849 123.167C77.6461 115.514 81.8236 105.238 81.8237 94.5373Z" fill="#90D633" fill-opacity="0.67"/>
<path d="M235.186 53.5756C249.944 53.5756 261.908 41.5823 261.908 26.7878C261.908 11.9933 249.944 0 235.186 0C220.428 0 208.464 11.9933 208.464 26.7878C208.464 41.5823 220.428 53.5756 235.186 53.5756Z" fill="#FFD465"/>
<path d="M76.3224 112.144C105.901 112.144 129.879 88.1073 129.879 58.4564C129.879 28.8054 105.901 4.76855 76.3224 4.76855C46.744 4.76855 22.766 28.8054 22.766 58.4564C22.766 88.1073 46.744 112.144 76.3224 112.144Z" fill="#75D62A"/>
<path opacity="0.2" d="M36.7781 22.597C31.7824 34.3113 31.1048 47.4247 34.8661 59.5937C38.6274 71.7628 46.5827 82.1947 57.3103 89.0252C68.0379 95.8557 80.8388 98.6398 93.4257 96.88C106.012 95.1201 117.565 88.931 126.019 79.4187C122.967 86.5756 118.4 92.9819 112.633 98.1936C106.866 103.405 100.038 107.298 92.6219 109.602C85.2055 111.906 77.3781 112.566 69.6821 111.536C61.9861 110.506 54.6054 107.811 48.0514 103.638C41.4974 99.4651 35.9268 93.9135 31.7256 87.368C27.5244 80.8225 24.793 73.4396 23.7207 65.7309C22.6483 58.0221 23.2607 50.1718 25.5153 42.7238C27.77 35.2759 31.613 28.4083 36.7781 22.597Z" fill="black"/>
<path d="M76.4694 58.4563H76.6167L79.2651 210.67H73.674L76.4694 58.4563Z" fill="#3F3D56"/>
<path d="M86.2211 141.366L84.9874 139.017L76.1343 143.689L77.3681 146.039L86.2211 141.366Z" fill="#3F3D56"/>
<path d="M158.239 209.246C158.239 209.246 158.432 205.187 162.393 205.659L158.239 209.246Z" fill="#3F3D56"/>
<path d="M157.119 205.384C158.214 205.384 159.102 204.494 159.102 203.396C159.102 202.299 158.214 201.409 157.119 201.409C156.024 201.409 155.137 202.299 155.137 203.396C155.137 204.494 156.024 205.384 157.119 205.384Z" fill="#75D62A"/>
<path d="M157.356 206.743H156.797V210.67H157.356V206.743Z" fill="#3F3D56"/>
<path d="M20.8501 208.685C20.8501 208.685 21.0433 204.627 25.0045 205.098L20.8501 208.685Z" fill="#3F3D56"/>
<path d="M19.7308 204.823C20.8258 204.823 21.7134 203.933 21.7134 202.835C21.7134 201.738 20.8258 200.848 19.7308 200.848C18.6359 200.848 17.7483 201.738 17.7483 202.835C17.7483 203.933 18.6359 204.823 19.7308 204.823Z" fill="#75D62A"/>
<path d="M19.9679 206.182H19.4082V210.109H19.9679V206.182Z" fill="#3F3D56"/>
<path d="M53.3085 208.966C53.3085 208.966 53.5017 204.907 57.4629 205.379L53.3085 208.966Z" fill="#3F3D56"/>
<path d="M52.1892 205.103C53.2842 205.103 54.1718 204.213 54.1718 203.116C54.1718 202.018 53.2842 201.128 52.1892 201.128C51.0943 201.128 50.2067 202.018 50.2067 203.116C50.2067 204.213 51.0943 205.103 52.1892 205.103Z" fill="#75D62A"/>
<path d="M52.4262 206.463H51.8666V210.39H52.4262V206.463Z" fill="#3F3D56"/>
<path d="M200.108 58.4325L204.085 55.244C200.996 54.9023 199.726 56.5913 199.207 57.9282C196.793 56.9236 194.166 58.2402 194.166 58.2402L202.123 61.1359C201.721 60.0611 201.023 59.1233 200.108 58.4325Z" fill="#3F3D56"/>
<path d="M134.878 86.1478L138.855 82.9593C135.765 82.6176 134.496 84.3067 133.976 85.6435C131.563 84.6389 128.935 85.9555 128.935 85.9555L136.892 88.8512C136.491 87.7764 135.792 86.8386 134.878 86.1478Z" fill="#3F3D56"/>
<path d="M212.487 210.719C212.487 210.719 212.681 206.661 216.642 207.133L212.487 210.719Z" fill="#3F3D56"/>
<path d="M175.272 210.719C175.272 210.719 175.465 206.661 179.427 207.133L175.272 210.719Z" fill="#3F3D56"/>
<path d="M39.5627 210.719C39.5627 210.719 39.7559 206.661 43.7171 207.133L39.5627 210.719Z" fill="#3F3D56"/>
<path d="M229.276 210.719C229.276 210.719 229.469 206.661 233.431 207.133L229.276 210.719Z" fill="#3F3D56"/>
<path d="M221.441 210.719C221.441 210.719 221.635 206.661 225.596 207.133L221.441 210.719Z" fill="#3F3D56"/>
<path d="M205.28 210.719C205.28 210.719 205.086 206.661 201.125 207.133L205.28 210.719Z" fill="#3F3D56"/>
<path d="M140.923 210.719C140.923 210.719 140.729 206.661 136.768 207.133L140.923 210.719Z" fill="#3F3D56"/>
<path d="M87.4782 210.719C87.4782 210.719 87.285 206.661 83.3238 207.133L87.4782 210.719Z" fill="#3F3D56"/>
<path d="M30.6761 210.719C30.6761 210.719 30.4828 206.661 26.5216 207.133L30.6761 210.719Z" fill="#3F3D56"/>
<path d="M246.132 210.719C246.132 210.719 245.939 206.661 241.978 207.133L246.132 210.719Z" fill="#3F3D56"/>
<path d="M222.068 211C222.068 211 221.875 206.941 217.914 207.413L222.068 211Z" fill="#3F3D56"/>
<path d="M276 210.189H0V210.812H276V210.189Z" fill="#3F3D56" fill-opacity="0.2"/>
</svg>
