<svg width="245" height="207" viewBox="0 0 245 207" fill="none" xmlns="http://www.w3.org/2000/svg">
<path opacity="0.2" d="M225.806 0H19.4758V207H225.806V0Z" fill="#90D633"/>
<path opacity="0.5" d="M194.476 19.3266H50.5242V187.957H194.476V19.3266Z" fill="#90D633"/>
<path d="M245 29.7332H167.944V178.399H245V29.7332Z" fill="url(#paint0_linear)"/>
<path d="M77.0564 30.2996H0V178.966H77.0564V30.2996Z" fill="url(#paint1_linear)"/>
<path d="M242.46 31.9987H170.484V175.285H242.46V31.9987Z" fill="#90D633"/>
<path d="M2.54032 175.285H74.5161L74.5161 31.9986H2.54032L2.54032 175.285Z" fill="#90D633"/>
<path d="M62.6613 45.0246H14.3952V53.803H62.6613V45.0246Z" fill="url(#paint2_linear)"/>
<path d="M230.887 58.3337H182.621V67.1121H230.887V58.3337Z" fill="url(#paint3_linear)"/>
<path d="M230.605 71.9261H182.339V80.7045H230.605V71.9261Z" fill="url(#paint4_linear)"/>
<path d="M230.605 85.5184H182.339V94.2968H230.605V85.5184Z" fill="url(#paint5_linear)"/>
<path d="M230.605 99.1108H182.339V107.889H230.605V99.1108Z" fill="url(#paint6_linear)"/>
<path d="M230.605 112.703H182.339V121.482H230.605V112.703Z" fill="url(#paint7_linear)"/>
<path d="M230.605 126.296H182.339V135.074H230.605V126.296Z" fill="url(#paint8_linear)"/>
<path d="M230.605 139.888H182.339V148.666H230.605V139.888Z" fill="url(#paint9_linear)"/>
<path d="M230.605 153.48H182.339V162.259H230.605V153.48Z" fill="url(#paint10_linear)"/>
<path d="M230.605 45.0246H182.339V53.803H230.605V45.0246Z" fill="url(#paint11_linear)"/>
<path d="M62.6613 58.9001H14.3952V67.6785H62.6613V58.9001Z" fill="url(#paint12_linear)"/>
<path d="M62.6613 72.2094H14.3952V80.9877H62.6613V72.2094Z" fill="url(#paint13_linear)"/>
<path d="M62.6613 85.5184H14.3952V94.2968H62.6613V85.5184Z" fill="url(#paint14_linear)"/>
<path d="M62.6613 99.1108H14.3952V107.889H62.6613V99.1108Z" fill="url(#paint15_linear)"/>
<path d="M62.6613 112.703H14.3952V121.482H62.6613V112.703Z" fill="url(#paint16_linear)"/>
<path d="M61.8145 46.1573H15.5242V52.9535H61.8145V46.1573Z" fill="white"/>
<path d="M61.6734 59.4664H15.3831V66.2626H61.6734V59.4664Z" fill="white"/>
<path d="M61.6734 73.0588H15.3831V79.855H61.6734V73.0588Z" fill="white"/>
<path d="M61.6734 86.6511H15.3831V93.4473H61.6734V86.6511Z" fill="white"/>
<path d="M61.6734 100.244H15.3831V107.04H61.6734V100.244Z" fill="white"/>
<path d="M61.6734 113.836H15.3831V120.632H61.6734V113.836Z" fill="white"/>
<path d="M62.6613 126.296H14.3952V135.074H62.6613V126.296Z" fill="url(#paint17_linear)"/>
<path d="M61.6734 127.428H15.3831V134.224H61.6734V127.428Z" fill="white"/>
<path d="M61.6734 127.428H15.3831V134.224H61.6734V127.428Z" fill="white"/>
<path d="M61.6734 141.021H15.3831V147.817H61.6734V141.021Z" fill="white"/>
<path d="M61.6734 154.613H15.3831V161.409H61.6734V154.613Z" fill="white"/>
<path d="M229.758 45.8741H183.468V52.6703H229.758V45.8741Z" fill="white"/>
<path d="M229.758 59.4664H183.468V66.2626H229.758V59.4664Z" fill="white"/>
<path d="M229.758 73.0588H183.468V79.855H229.758V73.0588Z" fill="white"/>
<path d="M229.758 86.6511H183.468V93.4473H229.758V86.6511Z" fill="white"/>
<path d="M229.758 100.244H183.468V107.04H229.758V100.244Z" fill="white"/>
<path d="M229.758 113.836H183.468V120.632H229.758V113.836Z" fill="white"/>
<path d="M229.758 127.428H183.468V134.224H229.758V127.428Z" fill="white"/>
<path d="M229.758 141.021H183.468V147.817H229.758V141.021Z" fill="white"/>
<path d="M229.758 154.613H183.468V161.409H229.758V154.613Z" fill="white"/>
<path d="M207.46 182.647H37.2581V193.408H207.46V182.647Z" fill="url(#paint18_linear)"/>
<path d="M206.331 183.78H38.6694V192.275H206.331V183.78Z" fill="#90D633"/>
<path d="M207.742 14.1587H37.8226V25.2025H207.742V14.1587Z" fill="url(#paint19_linear)"/>
<path d="M206.331 15.0082H38.6694V23.5035H206.331V15.0082Z" fill="#90D633"/>
<path opacity="0.5" d="M163.992 31.9987H81.5726V175.285H163.992V31.9987Z" fill="#263238"/>
<path d="M186.194 94.311C188.17 96.9671 185.212 100.105 185.212 100.105L185.709 100.277C184.978 101.09 182.09 104.757 170.958 121.346C156.704 142.584 137.496 147.882 137.496 147.882C135.163 146.052 132.508 144.678 129.669 143.83V141.825C133.296 140.752 136.61 138.814 139.328 136.176C142.046 133.539 144.088 130.281 145.278 126.681C146.978 123.306 147.861 119.577 147.858 115.795C147.858 102.203 136.633 91.1762 122.788 91.1762C108.943 91.1762 97.7178 102.2 97.7178 115.795C97.7143 119.577 98.5981 123.306 100.298 126.681C101.488 130.281 103.529 133.539 106.248 136.176C108.966 138.814 112.28 140.752 115.906 141.825V143.83C113.068 144.678 110.413 146.052 108.079 147.882C108.079 147.882 88.8633 142.578 74.6093 121.34C63.477 104.752 60.5895 101.082 59.8585 100.272L60.3552 100.099C60.3552 100.099 57.4056 96.9615 59.373 94.3053C61.3403 91.6491 46.3468 88.5116 48.0657 94.3053C49.7847 100.099 51.9976 102.996 51.9976 102.996C51.9976 102.996 83.3847 152.659 99.7698 160.865C99.3827 162.548 99.1876 164.269 99.1883 165.996V175.653H146.376V165.996C146.377 164.269 146.182 162.548 145.795 160.865C162.166 152.653 193.567 102.999 193.567 102.999C193.567 102.999 195.78 100.102 197.499 94.3081C199.218 88.5144 184.227 91.6548 186.194 94.311Z" fill="url(#paint20_linear)"/>
<path d="M122.782 141.171C136.042 141.171 146.791 130.387 146.791 117.084C146.791 103.781 136.042 92.9971 122.782 92.9971C109.523 92.9971 98.7734 103.781 98.7734 117.084C98.7734 130.387 109.523 141.171 122.782 141.171Z" fill="#263238"/>
<path d="M122.782 143.535C135.263 143.535 145.38 133.385 145.38 120.864C145.38 108.343 135.263 98.1934 122.782 98.1934C110.302 98.1934 100.185 108.343 100.185 120.864C100.185 133.385 110.302 143.535 122.782 143.535Z" fill="#F8C198"/>
<path d="M113.837 118.738C115.398 118.738 116.663 117.469 116.663 115.903C116.663 114.338 115.398 113.068 113.837 113.068C112.277 113.068 111.012 114.338 111.012 115.903C111.012 117.469 112.277 118.738 113.837 118.738Z" fill="#263238"/>
<path d="M132.198 118.738C133.759 118.738 135.024 117.469 135.024 115.903C135.024 114.338 133.759 113.068 132.198 113.068C130.638 113.068 129.373 114.338 129.373 115.903C129.373 117.469 130.638 118.738 132.198 118.738Z" fill="#263238"/>
<path d="M129.373 131.251C129.373 132.95 126.423 135.739 122.782 135.739C119.141 135.739 116.192 132.95 116.192 131.251C116.192 129.552 119.141 129.597 122.782 129.597C126.423 129.597 129.373 129.552 129.373 131.251Z" fill="white"/>
<path d="M114.543 116.849C115.064 116.849 115.486 116.425 115.486 115.903C115.486 115.381 115.064 114.957 114.543 114.957C114.022 114.957 113.6 115.381 113.6 115.903C113.6 116.425 114.022 116.849 114.543 116.849Z" fill="white"/>
<path d="M133.138 116.849C133.659 116.849 134.081 116.425 134.081 115.903C134.081 115.381 133.659 114.957 133.138 114.957C132.618 114.957 132.196 115.381 132.196 115.903C132.196 116.425 132.618 116.849 133.138 116.849Z" fill="white"/>
<path d="M125.04 108.28C123.663 108.28 122.427 107.079 122.28 105.706C122.232 105.015 122.396 104.327 122.749 103.732C123.102 103.138 123.628 102.665 124.256 102.379C124.384 102.312 124.526 102.275 124.671 102.271C125.145 102.271 125.379 102.837 125.531 103.288C126.006 104.681 126.847 106.04 128.168 106.686C129.489 107.331 131.335 107 132.032 105.703C130.163 104.868 129.364 102.245 130.451 100.507C130.872 99.8357 131.527 99.2665 131.659 98.4849C131.902 97.0691 130.355 96.0383 128.986 95.6136C125.035 94.3874 111.26 94.2515 110.501 100.167C109.705 106.408 120.702 109.107 125.04 108.28Z" fill="#263238"/>
<path d="M102.591 124.841C103.316 124.554 103.247 122.649 102.435 120.586C101.624 118.523 100.379 117.084 99.6536 117.371C98.9286 117.658 98.9984 119.563 99.8097 121.626C100.621 123.689 101.866 125.128 102.591 124.841Z" fill="#F8C198"/>
<path d="M145.748 121.611C146.559 119.548 146.629 117.643 145.904 117.356C145.179 117.069 143.934 118.509 143.123 120.572C142.311 122.634 142.242 124.539 142.967 124.826C143.692 125.113 144.937 123.674 145.748 121.611Z" fill="#F8C198"/>
<path d="M136.87 148.479C136.87 148.479 155.265 143.297 168.917 122.515C182.57 101.733 183.276 101.676 183.276 101.676L190.572 104.568C190.572 104.568 156.679 159.356 142.086 162.191C127.493 165.025 136.87 148.479 136.87 148.479Z" fill="#FF9800"/>
<path d="M182.573 101.736C182.573 101.736 185.396 98.6661 183.516 96.0723C181.636 93.4784 195.992 90.4088 194.343 96.0723C192.695 101.736 190.578 104.567 190.578 104.567L182.573 101.736Z" fill="#F8C198"/>
<path d="M108.695 148.479C108.695 148.479 90.3 143.297 76.6472 122.515C62.9944 101.733 62.2887 101.676 62.2887 101.676L54.9923 104.568C54.9923 104.568 88.8887 159.356 103.484 162.191C118.08 165.025 108.695 148.479 108.695 148.479Z" fill="#FF9800"/>
<path d="M62.9915 101.736C62.9915 101.736 60.169 98.6661 62.0488 96.0723C63.9286 93.4784 49.573 90.4088 51.2214 96.0723C52.8698 101.736 54.9867 104.567 54.9867 104.567L62.9915 101.736Z" fill="#F8C198"/>
<g opacity="0.2">
<path opacity="0.2" d="M130.485 97.0634C130.35 97.845 129.695 98.4113 129.277 99.0853C128.326 100.609 128.82 102.812 130.214 103.899C130.014 103.389 129.931 102.841 129.973 102.294C130.014 101.748 130.179 101.218 130.454 100.745C130.875 100.074 131.529 99.5044 131.662 98.7228C131.815 97.8365 131.264 97.1002 130.496 96.5707C130.517 96.7346 130.513 96.9006 130.485 97.0634Z" fill="white"/>
<path opacity="0.2" d="M124.606 102.512C124.515 102.299 124.431 102.084 124.357 101.869C124.205 101.419 123.971 100.866 123.496 100.852C123.352 100.857 123.21 100.893 123.081 100.96C122.454 101.247 121.928 101.719 121.575 102.314C121.222 102.908 121.058 103.597 121.106 104.287C121.158 104.704 121.298 105.104 121.515 105.463C121.732 105.822 122.023 106.13 122.367 106.369C122.328 106.229 122.299 106.086 122.283 105.941C122.235 105.25 122.399 104.562 122.752 103.967C123.105 103.373 123.631 102.9 124.258 102.614C124.368 102.561 124.485 102.526 124.606 102.512Z" fill="white"/>
<path opacity="0.2" d="M122.616 106.997C119.183 107.142 113.646 105.828 110.916 103.033C112.954 107.382 121.374 109.203 125.029 108.504C124.53 108.487 124.045 108.339 123.621 108.074C123.198 107.81 122.851 107.438 122.616 106.997Z" fill="white"/>
<path opacity="0.2" d="M130.595 104.664C129.771 105.635 128.173 105.839 126.996 105.264C126.612 105.074 126.26 104.825 125.952 104.525C126.408 105.547 127.189 106.387 128.173 106.915C129.494 107.558 131.34 107.229 132.038 105.932C131.444 105.659 130.943 105.219 130.595 104.664Z" fill="white"/>
</g>
<path opacity="0.2" d="M189.635 104.568C189.635 104.568 155.739 159.356 141.129 162.191C140.285 162.36 139.429 162.465 138.569 162.505C139.745 162.539 140.921 162.433 142.072 162.191C156.667 159.359 190.564 104.568 190.564 104.568L189.807 104.299C189.703 104.477 189.635 104.568 189.635 104.568Z" fill="white"/>
<path opacity="0.2" d="M55.9294 104.568C55.9294 104.568 89.8258 159.356 104.435 162.191C105.28 162.36 106.136 162.465 106.996 162.505C105.82 162.539 104.644 162.433 103.493 162.191C88.8972 159.359 55.0008 104.568 55.0008 104.568L55.7573 104.299C55.8617 104.477 55.9294 104.568 55.9294 104.568Z" fill="white"/>
<path d="M122.782 143.535C125.75 143.535 128.688 144.122 131.43 145.261C134.172 146.4 136.663 148.07 138.761 150.175C140.86 152.28 142.524 154.78 143.66 157.53C144.795 160.281 145.38 163.229 145.38 166.206V175.653H100.185V166.206C100.185 163.229 100.769 160.281 101.905 157.53C103.04 154.78 104.705 152.28 106.803 150.175C108.902 148.07 111.393 146.4 114.135 145.261C116.876 144.122 119.815 143.535 122.782 143.535Z" fill="#FF9800"/>
<path opacity="0.2" d="M123.017 143.654C122.194 143.654 121.373 143.698 120.555 143.787C120.837 143.787 121.094 143.77 121.368 143.77C127.361 143.77 133.109 146.159 137.347 150.41C141.585 154.662 143.966 160.428 143.966 166.441V175.769H145.614V166.325C145.614 160.312 143.233 154.546 138.995 150.294C134.758 146.043 129.01 143.654 123.017 143.654Z" fill="white"/>
<path opacity="0.2" d="M122.548 143.654C123.37 143.654 124.192 143.698 125.009 143.787C124.727 143.787 124.47 143.77 124.196 143.77C118.203 143.77 112.455 146.159 108.217 150.41C103.98 154.662 101.599 160.428 101.599 166.441V175.769H99.9504V166.325C99.9504 160.312 102.331 154.546 106.569 150.294C110.807 146.043 116.555 143.654 122.548 143.654Z" fill="white"/>
<path d="M129.373 143.889C129.373 140.237 126.422 137.277 122.782 137.277C119.142 137.277 116.192 140.237 116.192 143.889V146.605C116.192 150.256 119.142 153.217 122.782 153.217C126.422 153.217 129.373 150.256 129.373 146.605V143.889Z" fill="#F8C198"/>
<defs>
<linearGradient id="paint0_linear" x1="206.472" y1="178.399" x2="206.472" y2="29.7332" gradientUnits="userSpaceOnUse">
<stop stop-color="#808080" stop-opacity="0.25"/>
<stop offset="0.54" stop-color="#808080" stop-opacity="0.12"/>
<stop offset="1" stop-color="#808080" stop-opacity="0.1"/>
</linearGradient>
<linearGradient id="paint1_linear" x1="10518.2" y1="93987.3" x2="10518.2" y2="15937.6" gradientUnits="userSpaceOnUse">
<stop stop-color="#808080" stop-opacity="0.25"/>
<stop offset="0.54" stop-color="#808080" stop-opacity="0.12"/>
<stop offset="1" stop-color="#808080" stop-opacity="0.1"/>
</linearGradient>
<linearGradient id="paint2_linear" x1="38.5282" y1="53.803" x2="38.5282" y2="45.0246" gradientUnits="userSpaceOnUse">
<stop stop-opacity="0.12"/>
<stop offset="0.55" stop-opacity="0.09"/>
<stop offset="1" stop-opacity="0.02"/>
</linearGradient>
<linearGradient id="paint3_linear" x1="35537.6" y1="2138.81" x2="35537.6" y2="1866.68" gradientUnits="userSpaceOnUse">
<stop stop-opacity="0.12"/>
<stop offset="0.55" stop-opacity="0.09"/>
<stop offset="1" stop-opacity="0.02"/>
</linearGradient>
<linearGradient id="paint4_linear" x1="35489" y1="2573.77" x2="35489" y2="2301.64" gradientUnits="userSpaceOnUse">
<stop stop-opacity="0.12"/>
<stop offset="0.55" stop-opacity="0.09"/>
<stop offset="1" stop-opacity="0.02"/>
</linearGradient>
<linearGradient id="paint5_linear" x1="35489" y1="3008.72" x2="35489" y2="2736.59" gradientUnits="userSpaceOnUse">
<stop stop-opacity="0.12"/>
<stop offset="0.55" stop-opacity="0.09"/>
<stop offset="1" stop-opacity="0.02"/>
</linearGradient>
<linearGradient id="paint6_linear" x1="35489" y1="3443.67" x2="35489" y2="3171.54" gradientUnits="userSpaceOnUse">
<stop stop-opacity="0.12"/>
<stop offset="0.55" stop-opacity="0.09"/>
<stop offset="1" stop-opacity="0.02"/>
</linearGradient>
<linearGradient id="paint7_linear" x1="35489" y1="3878.63" x2="35489" y2="3606.5" gradientUnits="userSpaceOnUse">
<stop stop-opacity="0.12"/>
<stop offset="0.55" stop-opacity="0.09"/>
<stop offset="1" stop-opacity="0.02"/>
</linearGradient>
<linearGradient id="paint8_linear" x1="35489" y1="4313.58" x2="35489" y2="4041.45" gradientUnits="userSpaceOnUse">
<stop stop-opacity="0.12"/>
<stop offset="0.55" stop-opacity="0.09"/>
<stop offset="1" stop-opacity="0.02"/>
</linearGradient>
<linearGradient id="paint9_linear" x1="35489" y1="4748.54" x2="35489" y2="4476.41" gradientUnits="userSpaceOnUse">
<stop stop-opacity="0.12"/>
<stop offset="0.55" stop-opacity="0.09"/>
<stop offset="1" stop-opacity="0.02"/>
</linearGradient>
<linearGradient id="paint10_linear" x1="35489" y1="5183.49" x2="35489" y2="4911.36" gradientUnits="userSpaceOnUse">
<stop stop-opacity="0.12"/>
<stop offset="0.55" stop-opacity="0.09"/>
<stop offset="1" stop-opacity="0.02"/>
</linearGradient>
<linearGradient id="paint11_linear" x1="35489" y1="45.0246" x2="35489" y2="45.0246" gradientUnits="userSpaceOnUse">
<stop stop-opacity="0.12"/>
<stop offset="0.55" stop-opacity="0.09"/>
<stop offset="1" stop-opacity="0.02"/>
</linearGradient>
<linearGradient id="paint12_linear" x1="2475.97" y1="2020.87" x2="10729.5" y2="2020.87" gradientUnits="userSpaceOnUse">
<stop stop-opacity="0.12"/>
<stop offset="0.55" stop-opacity="0.09"/>
<stop offset="1" stop-opacity="0.02"/>
</linearGradient>
<linearGradient id="paint13_linear" x1="2475.97" y1="2446.76" x2="10729.5" y2="2446.76" gradientUnits="userSpaceOnUse">
<stop stop-opacity="0.12"/>
<stop offset="0.55" stop-opacity="0.09"/>
<stop offset="1" stop-opacity="0.02"/>
</linearGradient>
<linearGradient id="paint14_linear" x1="2475.97" y1="2872.65" x2="10729.5" y2="2872.65" gradientUnits="userSpaceOnUse">
<stop stop-opacity="0.12"/>
<stop offset="0.55" stop-opacity="0.09"/>
<stop offset="1" stop-opacity="0.02"/>
</linearGradient>
<linearGradient id="paint15_linear" x1="2475.97" y1="3307.61" x2="10729.5" y2="3307.61" gradientUnits="userSpaceOnUse">
<stop stop-opacity="0.12"/>
<stop offset="0.55" stop-opacity="0.09"/>
<stop offset="1" stop-opacity="0.02"/>
</linearGradient>
<linearGradient id="paint16_linear" x1="2475.97" y1="3742.56" x2="10729.5" y2="3742.56" gradientUnits="userSpaceOnUse">
<stop stop-opacity="0.12"/>
<stop offset="0.55" stop-opacity="0.09"/>
<stop offset="1" stop-opacity="0.02"/>
</linearGradient>
<linearGradient id="paint17_linear" x1="2475.97" y1="4177.51" x2="10729.5" y2="4177.51" gradientUnits="userSpaceOnUse">
<stop stop-opacity="0.12"/>
<stop offset="0.55" stop-opacity="0.09"/>
<stop offset="1" stop-opacity="0.02"/>
</linearGradient>
<linearGradient id="paint18_linear" x1="22503.9" y1="7327.71" x2="125135" y2="7327.71" gradientUnits="userSpaceOnUse">
<stop stop-color="#808080" stop-opacity="0.25"/>
<stop offset="0.54" stop-color="#808080" stop-opacity="0.12"/>
<stop offset="1" stop-color="#808080" stop-opacity="0.1"/>
</linearGradient>
<linearGradient id="paint19_linear" x1="73952.7" y1="997.054" x2="73952.7" y2="566.347" gradientUnits="userSpaceOnUse">
<stop stop-color="#808080" stop-opacity="0.25"/>
<stop offset="0.54" stop-color="#808080" stop-opacity="0.12"/>
<stop offset="1" stop-color="#808080" stop-opacity="0.1"/>
</linearGradient>
<linearGradient id="paint20_linear" x1="90022.6" y1="59730.3" x2="90022.6" y2="34446.2" gradientUnits="userSpaceOnUse">
<stop stop-color="#808080" stop-opacity="0.25"/>
<stop offset="0.54" stop-color="#808080" stop-opacity="0.12"/>
<stop offset="1" stop-color="#808080" stop-opacity="0.1"/>
</linearGradient>
</defs>
</svg>
