<svg width="182" height="137" fill="none" xmlns="http://www.w3.org/2000/svg"><path d="M174.563 121.688l.681-2.701c1.208-.515 2.443-.96 3.701-1.335l.086 1.255.349-1.383c1.559-.447 2.62-.645 2.62-.645s-1.433 5.48-4.439 9.669l-3.502.618 2.721.395c-.379.457-.785.89-1.217 1.297-4.373 4.081-9.243 5.953-10.878 4.182-1.635-1.772.584-6.516 4.956-10.597 1.356-1.265 3.059-2.28 4.763-3.079l.159 2.324z" fill="#E6E6E6"/><path d="M168.086 118.755l-.805-2.666c.769-1.068 1.597-2.092 2.481-3.066l.719 1.029-.412-1.365c1.105-1.193 1.911-1.914 1.911-1.914s1.591 5.436 1.171 10.584l-2.68 2.35 2.532-1.077c-.089.589-.214 1.171-.375 1.743-1.646 5.766-4.852 9.9-7.162 9.234-2.311-.667-2.85-5.881-1.205-11.647.51-1.788 1.446-3.542 2.494-5.112l1.331 1.907z" fill="#E6E6E6"/><path d="M181.59 133.415H75.8333v.412H181.59v-.412z" fill="#3F3D56"/><path d="M4.96361 53.8638c-1.43146-2.1365-2.04681-5.931.61535-7.801 1.3203-.9275 2.92307-.8143 4.31064-.4062 1.9193.5645 3.6261 1.7153 5.1025 3.0028 1.7028 1.4851 3.1608 3.2261 4.5984 4.9678 1.4192 1.7195 2.8575 3.4189 4.3662 5.0579 2.9734 3.2286 6.1481 6.2637 9.5048 9.0869 3.2897 2.7701 6.7493 5.3296 10.3583 7.6632 1.7918 1.1576 3.6219 2.2562 5.4903 3.2959a48.8808 48.8808 0 005.3724 2.6782c2.4521.9914 6.6538 2.377 8.8283-.4043 1.153-1.4747 1.2107-3.4758.9503-5.1566-.3148-2.0323-1.1085-3.9288-1.8905-5.7812-3.6375-8.6167-7.3175-17.2127-10.9764-25.8188-.854-2.0086-1.7334-4.0095-2.4428-6.0854-.6642-1.9435-1.217-3.9927-1.2301-6.1094-.0114-1.8489.3881-3.9353 1.7868-5.3594 1.1601-1.181 2.7854-1.5719 4.3159-1.563 3.7892.0222 7.3495 1.9616 10.2925 4.0056 3.6564 2.5395 6.8858 5.6244 10.5281 8.1831 2.941 2.0659 6.3996 3.9381 10.1529 4.1751 1.439.0908 2.9662-.1021 4.2772-.8927 1.2532-.791 2.166-2.0257 2.558-3.4603.4914-1.6629.4301-3.4194.1694-5.0585-.3258-1.9193-.9169-3.7834-1.7561-5.5382-1.7745-3.8126-4.1993-7.2292-6.2874-10.8478-1.0241-1.7746-2.0242-3.6035-2.6624-5.5829-.5407-1.67688-.9806-3.66165-.4464-5.47979 1.1022-3.75124 5.5834-2.33969 7.8555-1.25684a36.32393 36.32393 0 014.4405 2.60021c.3053.20285.6022-.33526.2983-.53715a34.88182 34.88182 0 00-4.68-2.71248c-1.385-.63729-2.9099-1.1932-4.4989-1.16265-1.3345.02566-2.6796.58774-3.4629 1.78827-.9267 1.42043-.8629 3.25686-.6134 4.78078.3298 2.01525 1.1173 3.87685 2.0253 5.64815.9563 1.8656 2.0474 3.6493 3.145 5.425 2.1934 3.5484 4.5964 7.1381 5.6903 11.2807.7652 2.8978 1.2487 7.4239-1.8661 9.492-1.3826.918-3.0769 1.0508-4.6068.8779-1.849-.209-3.6102-.8269-5.2549-1.6031-7.6696-3.6194-12.7788-11.1346-20.9553-13.9139-2.7801-.9449-6.6705-1.5483-9.1169 1.007-1.2709 1.3275-1.7807 3.1704-1.8951 4.9022-.1372 2.0741.2934 4.1153.8787 6.0362a59.88907 59.88907 0 002.2623 5.9222c.9166 2.1596 1.8345 4.3185 2.7535 6.4768l5.5714 13.1043 2.7682 6.5109c.8448 1.9872 1.7504 3.984 2.1907 6.1383.3606 1.7639.4629 4.191-1.0823 5.61-1.2271 1.1269-3.0201 1.0747-4.4566.813-1.8601-.3388-3.6101-1.0795-5.2756-1.8966-1.9211-.9424-3.7912-1.9879-5.6273-3.0753a99.54092 99.54092 0 01-10.8593-7.4556 103.67681 103.67681 0 01-9.847-8.8301A102.2139 102.2139 0 0122.1 55.6742c-1.5022-1.747-2.9129-3.5766-4.4687-5.2753-1.4073-1.5365-2.948-2.9608-4.7391-4.0444-1.4955-.9049-3.26344-1.6615-5.10276-1.6019-.6488.0182-1.28652.1736-1.87169.4559s-1.10469.6853-1.5248 1.1828c-.82317 1.029-1.26797 2.3122-1.25928 3.6328.00948 1.4904.46689 2.9432 1.31221 4.1676.2045.3052.72313-.0214.51773-.3279zM28.4097 4.14984H3.85211V26.0739H28.4097V4.14984z" fill="#E6E6E6"/><path d="M28.4097 43.6131H3.85211v21.924H28.4097v-21.924zM107.317 4.14984H82.7598V26.0739h24.5572V4.14984z" fill="#90D633"/><path d="M107.317 43.6131H82.7598v21.924h24.5572v-21.924z" fill="#E6E6E6"/><path d="M68.1423 4.14984H43.5847V26.0739h24.5576V4.14984zM68.1423 43.6131H43.5847v21.924h24.5576v-21.924z" fill="#90D633"/><path d="M43.6554 8.24314c2.2638 0 4.0991-1.84529 4.0991-4.12157S45.9192 0 43.6554 0c-2.2639 0-4.0991 1.84529-4.0991 4.12157s1.8352 4.12157 4.0991 4.12157zM83.2117 8.24314c2.2639 0 4.0991-1.84529 4.0991-4.12157S85.4756 0 83.2117 0s-4.0991 1.84529-4.0991 4.12157 1.8352 4.12157 4.0991 4.12157zM4.0991 47.8102c2.26387 0 4.0991-1.8453 4.0991-4.1216 0-2.2762-1.83523-4.1215-4.0991-4.1215S0 41.4124 0 43.6886c0 2.2763 1.83523 4.1216 4.0991 4.1216zM43.6554 47.8102c2.2638 0 4.0991-1.8453 4.0991-4.1216 0-2.2762-1.8353-4.1215-4.0991-4.1215-2.2639 0-4.0991 1.8453-4.0991 4.1215 0 2.2763 1.8352 4.1216 4.0991 4.1216z" fill="#3F3D56"/><path d="M139.226 131.3s-5.729.444-5.141 2.511c.587 2.068 5.141 1.773 5.141 1.773s3.525-.296 5.435.295c1.91.591 4.113 0 4.26-1.034.147-1.034-1.028-1.772-1.028-1.772l-.735-1.477-7.932-.296z" fill="#2F2E41"/><path d="M124.169 85.1443l-.587 2.3632s-2.644 5.4649.587 5.4649c3.232 0 2.057-5.0218 2.057-5.0218l.294-2.3632-2.351-.4431zM152.52 83.2242l.587 2.3632s2.645 5.4649-.587 5.4649-2.057-5.0218-2.057-5.0218l-.293-2.3632 2.35-.4431zM137.243 43.0499c3.488 0 6.316-2.8434 6.316-6.351s-2.828-6.3511-6.316-6.3511c-3.489 0-6.316 2.8435-6.316 6.3511 0 3.5076 2.827 6.351 6.316 6.351z" fill="#9F616A"/><path d="M135.333 41.573s.735 3.397.294 5.0217c-.441 1.6247 9.107-.2954 9.107-.2954s-3.378-5.6125-3.231-5.7602l-6.17 1.0339z" fill="#9F616A"/><path d="M136.802 45.4131s-2.644-.7385-3.525.1477c-.882.8862-6.023 3.3971-6.023 3.3971l3.525 21.7118 15.277-3.397 2.645-20.5303s-4.166-2.456-4.874-1.9665c-.708.4895-7.025.6372-7.025.6372z" fill="#D0CDE1"/><path d="M128.429 49.1057l-.705-.3802s-2.673.5279-2.526 2.5956c.146 2.0678.734 13.5884.734 13.5884l-2.35 20.8256 4.26.7385 4.26-17.4285-3.673-19.9394zM148.26 47.1856l.705-.3802s2.674.5279 2.527 2.5956c-.147 2.0678-.735 13.5884-.735 13.5884l2.35 20.8256-4.259.7385-4.26-17.4285 3.672-19.9394z" fill="#D0CDE1"/><path d="M130.926 68.4543l-.587 9.0096-1.91 18.0194 2.791 37.3677 9.695.296-2.938-35.5959 2.938-12.2591 9.603-.3576s.68-14.1169-4.755-18.5479l-14.837 2.0678z" fill="#2F2E41"/><path d="M141.503 83.2241l-1.543 32.5679-.514 16.468 8.667.887 2.187-48.4323-3.362-3.4106-5.435 1.92zM140.034 28.28s-5.729-.7385-7.345 2.0678c0 0-.44 2.0678-1.909 2.8063-1.469.7385.293 3.2494.734 3.9879.441.7385 1.616 5.0218.294 6.0557s2.35 3.9879 2.35 3.9879 1.763 2.3631.294 4.1355c-1.469 1.7724 1.91 2.3632 1.91 2.3632s-.735 5.0218.587 3.6925c0 0 .588 11.3729 6.17 4.2833s7.932-10.4867 5.582-13.293c-2.351-2.8062-.588-5.3171-.588-5.3171s.735-1.477-.881-3.6925c-1.616-2.2155-1.616-11.0775-7.198-11.0775zM131.734 132.187s-5.729.443-5.141 2.511c.588 2.067 5.141 1.772 5.141 1.772s3.526-.295 5.435.295c1.91.591 4.113 0 4.26-1.034.147-1.033-1.028-1.772-1.028-1.772l-.734-1.477-7.933-.295z" fill="#2F2E41"/></svg>